<?xml version="1.0" standalone="no"?>
<!DOCTYPE svg PUBLIC "-//W3C//DTD SVG 20010904//EN"
 "http://www.w3.org/TR/2001/REC-SVG-20010904/DTD/svg10.dtd">
<svg version="1.0" xmlns="http://www.w3.org/2000/svg"
 width="640.000000pt" height="1136.000000pt" viewBox="0 0 640.000000 1136.000000"
 preserveAspectRatio="xMidYMid meet">

<g transform="translate(0.000000,1136.000000) scale(0.100000,-0.100000)"
fill="#000000" stroke="none">
<path d="M985 11318 c-33 -22 -76 -49 -95 -60 -19 -10 -109 -70 -200 -133 -91
-63 -197 -133 -237 -155 -39 -23 -74 -47 -77 -55 -7 -20 -9 -445 -2 -453 7 -7
56 -14 104 -15 17 0 32 -4 32 -9 0 -5 9 -4 20 2 11 6 20 8 20 4 0 -3 6 -2 13
5 10 8 17 7 26 -2 10 -9 15 -8 25 6 7 9 18 17 25 17 6 0 11 3 11 8 0 13 83 51
125 56 22 3 57 1 77 -3 24 -6 40 -5 48 3 8 8 13 8 18 0 4 -6 22 -11 39 -12 25
0 38 7 57 30 l24 31 7 -31 6 -30 32 16 c18 9 33 20 35 23 2 4 12 5 22 2 16 -4
20 0 20 23 0 15 3 24 7 21 7 -8 33 11 33 25 0 5 -9 4 -19 -2 -11 -5 -22 -7
-24 -3 -7 12 18 162 29 173 5 5 27 12 49 15 22 2 51 13 65 24 20 14 43 19 95
19 42 0 71 4 73 11 2 6 13 11 25 11 21 -1 22 -1 3 -15 -23 -17 -22 -18 21 -33
28 -9 32 -8 38 11 5 17 8 18 12 7 3 -8 17 -28 32 -43 15 -16 22 -31 16 -35
-19 -13 -35 -51 -28 -68 4 -10 -1 -22 -11 -30 -10 -7 -15 -17 -11 -23 11 -18
-5 -33 -20 -19 -52 47 -84 49 -107 8 -16 -29 -16 -30 2 -30 13 0 20 7 20 20 0
12 7 20 16 20 13 0 14 -3 5 -14 -8 -9 -10 -28 -5 -50 6 -37 13 -43 30 -27 16
15 54 23 54 12 0 -6 -7 -11 -16 -11 -8 0 -12 -4 -9 -10 3 -5 15 -10 26 -10 11
0 17 -4 14 -10 -3 -5 1 -10 9 -10 8 0 19 8 25 17 7 14 12 15 25 4 8 -7 14 -18
13 -24 -1 -8 12 -11 41 -9 24 2 49 -2 57 -8 8 -7 15 -7 19 -1 4 6 18 6 38 1
17 -5 34 -7 38 -5 4 3 15 -4 25 -15 14 -16 21 -17 39 -8 11 6 33 13 47 14 25
3 27 1 25 -30 -2 -18 -6 -38 -10 -45 -4 -6 -1 -11 8 -11 10 0 13 -8 10 -26 -3
-18 -1 -25 8 -21 7 2 12 10 10 16 -1 6 12 20 30 31 35 21 53 11 42 -24 -5 -16
-2 -17 25 -11 26 5 31 4 31 -12 0 -10 4 -14 8 -8 4 6 24 18 45 28 37 17 38 17
32 -1 -3 -11 -1 -32 5 -48 9 -23 13 -25 20 -14 8 12 10 12 10 1 0 -7 6 -11 15
-7 8 3 15 1 15 -4 0 -9 -27 -14 -55 -11 -5 0 -3 -5 6 -11 13 -9 15 -16 6 -35
-12 -27 6 -55 30 -46 12 5 15 2 10 -9 -9 -24 22 -32 44 -12 11 10 19 14 19 9
0 -4 7 -2 15 5 8 7 15 9 15 5 0 -4 -7 -13 -17 -20 -11 -8 -13 -17 -7 -26 5 -8
7 -22 6 -32 -5 -27 20 -30 73 -7 48 21 49 21 31 1 -18 -20 -16 -51 4 -51 5 0
10 -7 10 -15 0 -8 -4 -15 -10 -15 -5 0 -10 -6 -10 -14 0 -15 45 -30 60 -21 6
3 7 -1 4 -9 -4 -9 -1 -16 6 -16 9 0 9 -4 3 -12 -14 -17 -22 -67 -12 -70 4 -2
11 -19 14 -38 3 -19 10 -37 16 -41 5 -3 7 -14 3 -24 -5 -13 -4 -16 4 -11 17
10 15 -10 -3 -28 -21 -21 -19 -29 5 -16 23 12 27 -2 5 -20 -8 -7 -15 -18 -15
-24 0 -6 5 -3 11 7 5 9 18 17 27 17 15 0 15 -2 2 -11 -11 -8 -12 -12 -3 -16 9
-3 10 -10 3 -22 -5 -10 -7 -21 -4 -23 8 -9 54 4 54 15 0 6 3 7 6 4 4 -4 -1
-18 -10 -31 -8 -14 -13 -32 -10 -40 4 -11 0 -16 -10 -16 -24 0 -38 -43 -18
-51 14 -5 12 -10 -11 -31 -29 -27 -35 -43 -13 -35 8 3 16 3 19 0 8 -7 -16 -32
-25 -26 -5 2 -9 -5 -9 -16 -1 -12 -2 -27 -3 -33 -1 -18 37 -10 48 9 7 12 10
11 20 -8 9 -17 9 -26 2 -31 -7 -5 -7 -8 2 -8 6 0 12 -4 12 -10 0 -5 -6 -10
-14 -10 -7 0 -20 -8 -27 -17 -13 -15 -11 -16 11 -10 14 4 30 7 36 7 6 0 24 12
39 28 16 15 26 20 23 12 -4 -11 2 -15 26 -14 25 1 32 6 35 25 3 23 3 23 17 -6
9 -19 13 -23 11 -10 -1 14 4 20 16 19 9 -1 17 5 17 13 0 8 7 13 17 11 12 -2
23 8 35 31 15 29 15 35 3 48 -19 19 -19 22 3 22 51 2 72 6 72 12 0 3 15 10 33
14 17 4 35 9 40 10 4 1 12 3 18 4 5 0 7 6 4 11 -3 6 3 10 13 10 11 0 22 7 26
15 10 26 29 17 22 -10 -5 -18 -2 -25 8 -25 21 0 46 28 40 44 -3 8 0 17 5 21 6
3 9 10 6 15 -5 8 19 18 120 50 22 8 91 15 154 17 71 2 117 7 122 14 5 8 8 8
13 0 4 -6 21 -11 37 -11 17 0 38 -4 48 -10 10 -5 38 -11 62 -12 29 -2 51 -10
64 -24 33 -35 63 -36 97 -3 34 32 40 34 70 18 14 -8 18 -17 14 -34 -6 -25 22
-45 34 -25 5 8 9 7 13 -4 3 -8 2 -18 -3 -21 -6 -4 -10 -14 -10 -23 1 -16 1
-16 11 1 5 9 15 17 20 17 6 0 9 -8 8 -17 -1 -10 -1 -25 0 -33 1 -12 3 -12 12
2 5 10 17 15 27 12 14 -5 14 -4 3 4 -12 9 -12 13 2 27 10 9 17 11 17 5 0 -6 5
-8 10 -5 8 5 7 11 0 20 -8 10 -8 19 0 35 6 11 9 28 6 38 -3 9 -1 24 4 32 6 10
10 11 10 3 0 -7 8 -21 18 -31 9 -10 23 -30 31 -45 20 -39 28 -34 27 18 -1 33
-5 44 -14 40 -7 -3 -10 0 -7 5 3 6 -1 13 -10 16 -12 5 -14 9 -4 14 13 9 -9 74
-62 180 -34 69 -71 101 -389 338 -58 43 -149 114 -202 157 -146 120 -297 227
-331 234 -20 4 -36 17 -47 39 -10 18 -21 33 -24 33 -41 -4 -58 0 -52 14 3 9 0
15 -9 15 -7 0 -21 8 -31 17 -13 13 -19 14 -22 5 -5 -15 -22 -6 -22 13 0 9 6
12 15 9 22 -9 18 9 -5 24 -11 7 -20 18 -20 26 0 22 -186 188 -325 291 -202
149 -340 245 -354 245 -4 0 -14 7 -21 15 -11 13 -90 15 -619 14 l-606 0 -60
-41z m530 -418 c3 -5 1 -10 -4 -10 -6 0 -11 5 -11 10 0 6 2 10 4 10 3 0 8 -4
11 -10z m602 -482 c-3 -8 -6 -5 -6 6 -1 11 2 17 5 13 3 -3 4 -12 1 -19z m1947
-763 c3 -8 1 -15 -4 -15 -6 0 -10 7 -10 15 0 8 2 15 4 15 2 0 6 -7 10 -15z
m26 -34 c0 -6 -4 -13 -10 -16 -5 -3 -10 1 -10 9 0 9 5 16 10 16 6 0 10 -4 10
-9z m-1320 -121 c0 -5 -7 -10 -16 -10 -8 0 -12 5 -9 10 3 6 10 10 16 10 5 0 9
-4 9 -10z m-30 -120 c0 -5 -5 -10 -11 -10 -5 0 -7 5 -4 10 3 6 8 10 11 10 2 0
4 -4 4 -10z"/>
<path d="M6243 11308 c-208 -136 -280 -188 -293 -212 -7 -14 -17 -26 -22 -26
-4 0 -8 -5 -8 -11 0 -6 -13 -28 -28 -48 -16 -20 -59 -85 -96 -146 -38 -60 -81
-129 -97 -153 -16 -23 -29 -45 -29 -48 0 -2 -25 -40 -55 -83 -30 -43 -55 -81
-55 -85 0 -3 -15 -28 -33 -54 -18 -26 -48 -72 -67 -102 -84 -137 -113 -185
-131 -216 -10 -19 -29 -51 -40 -71 -269 -470 -305 -550 -295 -661 21 -218 18
-235 -37 -266 -20 -12 -62 -43 -94 -70 -86 -72 -129 -99 -150 -92 -11 3 -36
30 -58 59 -21 28 -54 68 -74 88 -20 19 -44 48 -53 65 -18 32 -48 45 -44 20 1
-9 13 -31 26 -48 14 -18 32 -45 40 -59 38 -66 56 -89 68 -89 6 0 12 -9 12 -19
0 -11 5 -23 11 -26 6 -4 7 -19 4 -36 -6 -25 -4 -28 12 -23 15 5 15 4 3 -5 -8
-5 -15 -16 -16 -23 0 -7 -2 -18 -2 -24 -1 -7 -18 -15 -37 -18 -19 -4 -35 -11
-35 -15 0 -5 -9 -11 -20 -14 -23 -6 -27 8 -5 17 8 3 15 12 15 20 0 8 6 17 13
20 27 13 -39 -8 -72 -22 -20 -9 -52 -17 -71 -18 -19 -2 -45 -6 -57 -9 -12 -3
-25 0 -28 6 -11 17 -37 -28 -30 -52 5 -15 1 -25 -14 -35 -12 -9 -21 -26 -21
-40 0 -19 5 -24 25 -24 14 0 25 4 25 8 0 16 72 32 87 20 13 -10 18 -1 14 28
-1 12 47 29 56 20 3 -2 -5 -9 -16 -16 -12 -6 -21 -17 -21 -25 0 -17 -34 -38
-45 -27 -3 4 -5 1 -3 -7 2 -8 -13 -18 -39 -26 -24 -7 -43 -10 -43 -7 0 3 -9
-3 -20 -13 -11 -10 -23 -15 -27 -12 -3 4 -1 7 5 7 7 0 12 5 12 11 0 6 -9 8
-21 4 -15 -5 -19 -4 -15 4 8 13 -3 14 -22 2 -11 -7 -11 -9 2 -14 9 -4 16 -11
16 -17 0 -14 -37 -13 -42 2 -3 9 -23 8 -84 -2 -86 -14 -594 -18 -653 -5 -18 4
-55 8 -81 9 -37 1 -60 10 -106 41 -75 50 -128 75 -181 86 -50 10 -117 25 -156
35 -15 3 -30 10 -33 15 -8 14 -38 11 -60 -7 -19 -15 -19 -15 1 -11 11 3 29 8
40 12 16 6 15 4 -4 -10 -20 -15 -29 -16 -54 -7 -17 7 -35 8 -41 3 -6 -5 -33
-12 -61 -15 -77 -11 -181 -44 -280 -88 l-90 -41 -180 -9 c-179 -10 -370 -6
-665 11 -98 6 -181 6 -225 0 -38 -5 -137 -11 -220 -14 -82 -2 -154 -4 -158 -4
-5 -1 -5 -5 -2 -11 4 -6 60 -10 134 -10 70 0 131 -3 134 -6 3 -4 -5 -27 -20
-51 -61 -104 5 -223 142 -258 29 -7 29 -8 8 -17 -23 -11 -43 -55 -43 -94 0
-51 96 -67 135 -24 15 17 15 22 -4 64 -11 25 -25 46 -30 46 -27 0 -7 17 33 28
90 24 133 91 122 188 -3 25 -15 58 -26 74 -11 15 -20 31 -20 34 0 3 176 6 392
6 l392 0 -69 -62 c-80 -74 -173 -158 -233 -210 -29 -27 -40 -43 -35 -54 4 -12
3 -15 -5 -10 -16 9 -56 -19 -70 -49 -6 -14 -17 -25 -24 -25 -12 0 -88 -69
-256 -230 -40 -39 -70 -75 -67 -80 4 -6 -2 -10 -12 -10 -10 0 -33 -16 -50 -35
-18 -19 -35 -35 -38 -35 -9 0 -45 -40 -45 -50 0 -5 -4 -10 -10 -10 -10 0 -30
-16 -129 -105 -75 -68 -248 -205 -258 -205 -5 0 -19 46 -32 103 -34 150 -40
183 -51 281 -6 49 -13 92 -14 95 -2 3 -7 44 -10 91 -5 61 -12 93 -26 112 -24
33 -26 60 -5 52 18 -7 21 42 4 78 -9 20 -126 99 -263 177 -22 13 -64 39 -92
57 -28 19 -54 34 -58 34 -10 0 -115 84 -115 93 -1 4 129 7 288 7 183 0 292 4
296 10 3 6 5 10 3 11 -2 0 -138 2 -303 5 -165 3 -316 9 -336 14 -19 6 -50 23
-69 40 -35 31 -68 44 -138 54 l-42 6 0 -107 c0 -58 3 -103 7 -100 3 4 13 1 21
-6 13 -10 14 -9 7 2 -6 11 -4 13 9 8 10 -4 36 -10 59 -14 50 -8 92 -28 92 -45
0 -7 10 -14 23 -16 13 -2 26 -11 28 -20 3 -9 10 -25 15 -34 7 -14 5 -18 -11
-18 -11 0 -20 4 -20 9 0 5 -9 13 -20 16 -11 3 -20 13 -20 22 0 10 -6 13 -16 9
-9 -4 -13 -2 -8 5 4 8 -1 9 -15 4 -13 -4 -21 -2 -21 5 0 14 -43 30 -51 18 -3
-5 -11 -3 -17 5 -7 8 -23 12 -37 9 l-25 -4 0 -153 c0 -113 3 -155 13 -158 9
-4 9 -6 0 -6 -10 -1 -13 -194 -13 -886 0 -487 4 -885 8 -885 13 0 130 48 192
79 135 67 246 132 390 229 266 179 323 232 557 525 74 92 146 175 159 183 18
12 31 14 51 7 16 -6 36 -9 46 -7 15 2 18 -3 13 -29 -14 -89 -62 -273 -76 -292
-4 -5 -11 -28 -15 -50 -3 -22 -15 -54 -26 -71 -10 -17 -23 -55 -29 -85 -35
-181 -42 -200 -86 -251 -24 -27 -44 -45 -44 -41 0 4 -7 -3 -16 -15 -8 -12 -20
-20 -25 -17 -5 4 -9 -7 -9 -24 0 -16 -5 -33 -10 -36 -7 -5 -8 -11 -1 -18 5 -7
9 -79 8 -167 l-2 -156 -144 -139 c-79 -77 -151 -147 -160 -156 -43 -44 -114
-99 -126 -99 -7 0 -16 8 -18 18 -4 13 -5 12 -6 -5 0 -12 4 -23 11 -25 6 -2 -5
-17 -26 -33 -35 -27 -39 -28 -51 -12 -7 9 -18 17 -26 17 -10 -1 -9 -4 4 -11 9
-5 17 -17 17 -24 0 -17 -16 -20 -25 -5 -3 6 -11 10 -18 10 -6 0 -2 -7 9 -15
18 -14 18 -15 -11 -39 -31 -26 -55 -33 -55 -16 0 6 -4 10 -10 10 -18 0 -11
-30 8 -31 14 0 12 -3 -8 -17 -13 -9 -45 -38 -70 -63 -50 -51 -76 -64 -95 -49
-17 14 -4 64 23 94 27 30 97 172 116 236 27 90 23 104 -42 190 -21 28 -29 47
-23 53 7 7 7 17 0 29 -11 20 -39 25 -39 7 0 -7 -7 -8 -17 -4 -29 11 -94 15
-88 6 2 -5 -5 -9 -18 -8 -12 0 -35 -3 -52 -7 -22 -6 -26 -5 -15 3 13 9 13 11
0 11 -9 0 -25 -7 -37 -15 -14 -10 -24 -12 -28 -5 -10 16 -28 12 -21 -5 7 -18
-5 -20 -23 -2 -11 9 -13 9 -7 0 4 -7 2 -13 -3 -13 -8 0 -11 -148 -10 -477 0
-453 1 -477 17 -453 72 105 177 227 208 242 20 9 79 52 131 95 51 43 115 94
141 114 193 149 602 538 671 639 24 36 61 85 82 110 21 25 51 73 67 108 16 34
35 69 42 77 14 17 8 82 -22 207 -19 79 -20 90 -6 105 8 10 21 54 27 98 21 138
84 352 109 373 9 7 35 17 57 23 33 9 77 48 250 218 261 258 389 381 482 461
76 65 90 90 143 255 13 39 29 77 37 87 35 40 299 114 445 125 96 7 164 -6 210
-38 30 -22 37 -53 13 -63 -23 -8 -18 -22 22 -66 28 -32 37 -51 41 -90 4 -44 2
-50 -14 -50 -18 -1 -18 -1 -1 -14 15 -11 17 -24 14 -67 -4 -46 -8 -55 -28 -60
-24 -7 -24 -7 -1 -8 26 -1 28 -16 6 -59 -8 -18 -18 -53 -21 -79 -2 -27 -8 -52
-13 -58 -4 -5 -8 -25 -8 -43 0 -18 -6 -40 -13 -48 -6 -8 -8 -14 -4 -14 5 0 0
-8 -9 -19 -9 -10 -16 -22 -14 -27 5 -17 -34 -52 -51 -46 -13 5 -14 4 -1 -10
10 -11 17 -12 22 -5 4 6 9 9 13 6 3 -3 -4 -17 -16 -30 -11 -13 -16 -25 -11
-27 6 -2 -1 -33 -15 -70 -14 -37 -30 -80 -36 -97 -5 -16 -14 -32 -18 -35 -4
-3 -11 -21 -17 -40 -19 -63 -56 -155 -65 -161 -4 -3 -7 -12 -5 -20 2 -8 -4
-13 -14 -13 -10 1 -18 -4 -18 -12 0 -8 4 -14 9 -14 4 0 4 -23 -2 -51 -7 -35
-14 -49 -23 -45 -17 6 -18 -6 -3 -21 7 -7 8 -17 3 -25 -5 -7 -9 -15 -10 -18
-5 -28 -19 -67 -26 -77 -5 -7 -5 -14 2 -18 6 -4 7 -12 1 -24 -6 -10 -9 -41 -7
-69 3 -43 1 -52 -13 -52 -11 0 -12 -3 -4 -8 6 -4 11 -28 11 -54 -1 -38 -4 -45
-17 -40 -14 5 -14 4 -1 -12 8 -10 16 -37 17 -60 2 -38 1 -40 -12 -22 -19 25
-19 5 0 -41 19 -45 19 -46 -5 -40 -11 3 -20 0 -20 -6 0 -7 -7 -4 -14 6 -7 9
-16 17 -19 17 -7 0 24 -63 35 -71 13 -8 -2 -39 -18 -39 -8 0 -14 3 -14 8 0 4
-14 15 -30 24 -17 9 -30 15 -30 12 0 -16 23 -44 36 -44 11 0 12 -4 5 -19 -6
-10 -7 -21 -4 -25 3 -3 -1 -6 -9 -6 -9 0 -21 -7 -28 -15 -15 -18 -66 -20 -76
-3 -4 6 -6 33 -5 59 3 82 -55 225 -140 340 -27 37 -49 73 -49 81 0 8 -16 30
-36 49 l-37 34 5 -27 c6 -31 -6 -38 -57 -38 -28 0 -32 -3 -28 -20 4 -14 -1
-21 -21 -26 -14 -3 -26 -10 -26 -15 0 -5 -20 -29 -45 -52 -25 -24 -45 -47 -45
-51 0 -4 -11 -17 -24 -29 -13 -12 -32 -38 -42 -57 -30 -55 -57 -94 -71 -103
-8 -5 -11 -18 -7 -32 3 -13 0 -34 -7 -47 -22 -39 -49 -121 -55 -163 -3 -22 -9
-44 -14 -50 -10 -12 -25 -76 -21 -92 1 -7 -2 -13 -7 -13 -5 0 -10 -12 -10 -27
-1 -16 -2 -45 -3 -65 0 -21 -4 -38 -7 -38 -4 0 -8 -21 -10 -48 -2 -26 -4 -55
-5 -65 -1 -12 -7 -17 -19 -14 -10 3 -18 1 -18 -4 0 -5 5 -9 11 -9 5 0 7 -4 4
-10 -3 -5 -1 -10 4 -10 6 0 11 -4 11 -9 0 -10 -90 -35 -98 -26 -3 3 2 5 12 5
9 0 14 5 11 10 -7 12 -46 -6 -58 -26 -4 -8 -13 -14 -18 -14 -6 0 -16 -6 -24
-12 -7 -7 -24 -21 -39 -32 -14 -10 -23 -22 -20 -27 3 -5 -9 -29 -25 -53 -17
-25 -31 -48 -31 -53 0 -4 -10 -19 -23 -33 -13 -14 -24 -40 -25 -60 -1 -19 -5
-43 -8 -52 -3 -10 3 -21 14 -27 19 -10 33 -79 36 -168 1 -18 4 -33 9 -33 4 0
7 -16 7 -36 0 -19 6 -65 14 -102 25 -114 29 -172 13 -172 -8 0 -20 -14 -27
-30 -7 -16 -19 -30 -26 -30 -8 0 -13 -6 -12 -12 3 -14 -2 -14 -42 -4 -24 7
-24 6 -6 -8 11 -9 23 -16 27 -16 4 0 4 -12 0 -27 -7 -26 -3 -61 17 -181 5 -29
5 -55 1 -58 -5 -3 -4 -13 1 -22 17 -31 50 -142 50 -166 0 -14 4 -28 10 -31 5
-3 10 -21 10 -39 0 -18 3 -36 7 -40 5 -4 8 -11 9 -14 1 -16 27 -99 35 -114 5
-10 9 -29 9 -43 0 -14 4 -25 9 -25 5 0 13 -15 16 -33 4 -17 19 -52 33 -75 23
-40 28 -43 55 -38 23 5 34 1 50 -16 16 -19 19 -19 14 -5 -4 11 -3 17 4 15 6
-2 11 -8 12 -13 1 -6 11 -20 22 -33 24 -28 39 -76 25 -80 -6 -2 -7 -9 -3 -15
8 -12 11 -26 16 -62 2 -12 6 -25 10 -31 3 -6 8 -22 11 -36 2 -15 9 -36 16 -47
6 -12 8 -21 5 -21 -4 0 3 -14 15 -31 12 -16 20 -33 16 -36 -8 -9 76 -51 91
-46 7 3 13 0 13 -7 0 -7 7 -10 16 -6 9 3 28 -2 42 -13 15 -10 37 -22 50 -25
26 -9 31 -46 5 -46 -9 0 -13 -3 -9 -7 8 -8 13 -10 46 -12 12 -1 20 -8 20 -19
0 -10 9 -37 20 -60 11 -22 20 -47 20 -55 0 -7 6 -19 12 -25 10 -10 10 -15 -2
-23 -11 -8 -12 -12 -2 -16 6 -2 10 -9 6 -14 -3 -5 1 -9 9 -9 15 0 31 -34 27
-59 -1 -8 6 -20 15 -27 11 -8 13 -14 5 -19 -8 -5 -8 -11 1 -21 10 -12 9 -13
-7 -7 -17 6 -17 5 -5 -10 7 -9 17 -14 22 -11 14 8 10 -12 -4 -25 -8 -6 -18 -7
-22 -3 -5 4 -5 2 -2 -5 4 -6 -4 -25 -18 -41 -18 -22 -31 -29 -48 -25 -16 3
-18 2 -9 -5 11 -7 8 -11 -10 -15 -13 -4 -30 -18 -38 -32 -11 -21 -16 -23 -29
-12 -9 8 -12 8 -8 1 11 -20 -21 -24 -63 -10 -22 7 -38 10 -35 6 7 -11 -25 -21
-38 -13 -7 4 -23 6 -36 4 -17 -2 -21 1 -15 11 6 9 3 9 -10 -2 -26 -21 -216
-22 -216 -1 0 11 -3 11 -13 -3 -10 -13 -18 -15 -37 -8 -14 5 -37 6 -52 2 -14
-5 -29 -6 -32 -3 -2 3 -88 5 -190 4 -113 0 -186 4 -186 9 0 6 -5 10 -11 10 -5
0 -7 -5 -3 -11 8 -13 -75 -8 -110 6 -14 6 -17 5 -12 -3 4 -7 1 -12 -8 -12 -9
0 -16 4 -16 9 0 4 -18 3 -40 -3 -31 -8 -46 -7 -60 2 -17 10 -20 10 -20 -3 0
-10 -10 -15 -35 -15 -49 0 -40 -23 -149 380 -183 677 -215 871 -232 1395 -4
130 -7 151 -22 157 -26 10 -39 9 -22 -2 13 -9 12 -12 -5 -22 -11 -6 -37 -28
-57 -48 -26 -26 -40 -34 -48 -26 -5 5 -10 6 -10 2 0 -5 -6 -5 -13 0 -7 5 -5 1
5 -8 16 -14 17 -20 6 -37 -7 -12 -16 -21 -20 -21 -5 0 -8 -7 -8 -15 0 -8 -7
-15 -16 -15 -8 0 -13 -4 -9 -9 6 -11 -109 -191 -127 -199 -5 -2 -8 -9 -8 -16
0 -19 -37 -86 -44 -79 -3 4 -6 -3 -6 -16 0 -26 -48 -121 -62 -121 -5 0 -6 -5
-3 -11 8 -12 -14 -69 -26 -69 -5 0 -7 -11 -3 -24 3 -13 1 -27 -5 -30 -13 -8
-16 -1007 -3 -1004 15 5 53 -24 62 -48 5 -13 13 -24 17 -23 22 4 43 -2 43 -12
0 -6 -7 -9 -15 -5 -13 4 -13 2 -5 -14 18 -34 2 -50 -50 -50 -29 0 -50 5 -53
13 -3 6 -6 -5 -6 -25 l-1 -38 185 0 186 0 67 -62 c37 -34 68 -66 70 -70 2 -4
26 -24 54 -44 39 -27 48 -38 37 -45 -11 -7 -11 -9 -1 -9 8 0 27 -14 44 -30 16
-17 36 -30 44 -30 8 0 14 -4 14 -10 0 -5 7 -10 15 -10 8 0 15 -4 15 -9 0 -6
14 -18 30 -28 17 -10 33 -28 36 -40 4 -13 9 -21 14 -18 11 7 91 -55 84 -66 -3
-5 0 -9 5 -9 6 0 11 -9 11 -20 0 -11 6 -20 14 -20 17 0 31 -33 17 -38 -16 -5
-13 -27 3 -41 8 -7 14 -24 12 -39 -1 -15 1 -35 6 -44 5 -10 4 -19 -2 -23 -8
-5 -7 -12 1 -22 9 -10 10 -16 2 -21 -11 -7 -28 -134 -26 -189 1 -15 -5 -23
-16 -23 -14 0 -14 -2 -1 -10 13 -8 12 -10 -5 -10 -14 0 -16 -3 -8 -11 8 -8 8
-20 3 -35 -5 -13 -7 -24 -4 -24 2 0 -2 -13 -11 -30 -9 -16 -20 -30 -25 -30 -6
0 -10 -4 -10 -10 0 -5 7 -10 15 -10 8 0 15 -4 15 -10 0 -5 -3 -10 -7 -10 -5 0
-9 -17 -11 -37 -1 -20 -8 -57 -16 -82 -7 -25 -11 -52 -9 -59 7 -18 -18 -116
-31 -124 -8 -5 -7 -8 2 -8 28 0 -9 -40 -48 -51 -22 -7 -40 -16 -40 -20 0 -7
-58 -30 -89 -35 -8 -2 -18 -10 -23 -18 -5 -9 -16 -16 -23 -16 -8 0 -15 -4 -15
-8 0 -5 -19 -15 -42 -22 -24 -7 -52 -21 -63 -31 -19 -16 -75 -44 -185 -91 -25
-11 -70 -32 -100 -47 -30 -16 -67 -31 -82 -35 -16 -3 -28 -11 -28 -16 0 -6 -8
-10 -17 -10 -10 0 -28 -8 -41 -18 -22 -17 -22 -18 -20 -253 l3 -236 90 34 c50
19 97 41 105 49 10 10 15 34 15 67 l0 52 62 31 c34 18 97 45 140 62 l78 30 55
-57 c30 -31 66 -64 80 -74 37 -26 97 -42 112 -30 7 6 37 16 66 23 42 10 55 10
68 -1 11 -9 18 -9 22 -2 4 6 25 11 47 11 62 1 229 -28 236 -40 4 -6 26 -11 48
-10 71 3 436 -61 611 -107 146 -38 195 -52 210 -58 8 -4 33 -12 55 -19 22 -6
85 -28 140 -49 55 -20 118 -43 141 -50 23 -7 66 -27 96 -44 l55 -31 317 0
c209 0 315 3 311 10 -3 6 -1 10 4 10 6 0 11 -5 11 -11 0 -5 5 -7 11 -3 6 4 -6
17 -30 31 -23 13 -45 22 -50 19 -5 -3 -12 1 -15 10 -4 9 -13 14 -21 10 -10 -3
-29 9 -53 33 -21 22 -51 42 -69 46 -18 4 -39 15 -45 24 -7 10 -16 19 -21 19
-43 3 -66 16 -72 40 -5 19 -9 22 -15 13 -6 -11 -19 -8 -61 12 -30 14 -67 29
-84 32 -69 15 -84 25 -80 55 4 26 1 29 -27 28 -16 -1 -34 5 -40 13 -7 10 -8 6
-4 -13 8 -36 -3 -36 -89 1 -67 28 -104 61 -70 61 15 0 15 1 1 16 -20 19 -36
10 -29 -16 11 -41 -44 -14 -60 30 -3 9 -6 10 -6 3 -2 -33 -113 7 -119 42 -2
11 -13 27 -24 36 -19 15 -19 17 -3 110 12 63 15 121 12 174 -7 90 -58 337
-101 485 -9 30 -22 81 -28 113 -6 31 -16 57 -21 57 -12 0 -2 115 18 226 8 44
30 170 49 280 35 203 65 348 89 438 10 36 24 57 50 79 21 16 37 35 37 42 0 8
4 16 10 20 16 10 1051 5 1069 -5 14 -8 14 -9 -3 -10 -11 0 -51 -17 -90 -37
-49 -25 -82 -36 -107 -34 -32 1 -37 -2 -44 -26 -4 -19 -9 -23 -14 -14 -6 10
-10 10 -16 1 -4 -6 -4 -14 -1 -17 12 -12 -41 -42 -65 -37 -17 4 -20 3 -10 -4
11 -8 10 -12 -6 -21 -11 -5 -24 -7 -28 -3 -5 4 -5 2 -1 -5 4 -7 -3 -14 -16
-19 -13 -4 -25 -10 -28 -14 -15 -19 -123 -71 -138 -65 -9 3 -13 3 -9 -1 8 -8
-28 -41 -54 -49 -11 -4 -19 -10 -19 -15 0 -5 -10 -12 -22 -16 -13 -4 -46 -23
-75 -43 -52 -36 -72 -76 -48 -98 17 -15 85 -24 80 -10 -3 7 11 19 30 28 32 15
36 15 65 -2 23 -15 30 -16 30 -5 0 8 -7 16 -15 20 -20 7 -19 36 1 36 8 0 13 4
10 9 -3 5 3 11 14 14 27 7 60 -47 53 -89 -4 -25 -1 -32 16 -37 12 -3 21 -13
21 -24 0 -11 14 -40 30 -66 17 -26 30 -54 30 -62 0 -8 5 -15 11 -15 5 0 8 -4
4 -9 -3 -5 -1 -12 5 -16 5 -3 10 -14 10 -24 0 -16 8 -29 50 -78 5 -7 10 -21
10 -32 0 -10 6 -21 13 -24 8 -3 14 -23 15 -49 1 -33 8 -48 27 -63 14 -12 25
-25 25 -30 0 -6 16 -28 35 -50 20 -23 32 -47 29 -56 -3 -11 3 -18 18 -22 12
-4 19 -9 15 -13 -3 -3 4 -14 16 -24 18 -15 19 -20 9 -33 -11 -13 -8 -16 18
-22 16 -4 30 -11 30 -16 0 -6 14 -27 31 -48 17 -21 31 -46 33 -54 1 -9 11 -24
22 -34 24 -22 46 -71 39 -84 -4 -5 1 -9 10 -9 12 0 14 -7 9 -27 -4 -19 -3 -24
4 -15 7 10 20 -2 53 -48 24 -34 59 -78 77 -98 17 -20 32 -41 32 -47 0 -5 -7
-1 -15 9 -8 11 -17 17 -20 14 -8 -8 6 -38 17 -38 17 0 100 -88 94 -99 -3 -5 1
-11 9 -15 8 -3 15 -11 15 -17 0 -6 12 -23 27 -36 17 -16 22 -27 15 -32 -7 -4
1 -12 19 -20 16 -7 27 -17 24 -21 -3 -5 4 -14 15 -20 11 -6 18 -15 16 -19 -3
-4 6 -19 19 -31 14 -13 25 -29 25 -37 0 -7 5 -13 10 -13 6 0 10 -7 10 -17 0
-9 23 -39 50 -67 98 -100 140 -150 140 -168 0 -10 4 -18 9 -18 5 0 19 -20 31
-45 12 -25 26 -45 31 -45 6 0 8 -4 5 -9 -3 -5 1 -11 9 -15 8 -3 15 -12 15 -20
0 -9 9 -20 19 -26 26 -14 491 -14 491 0 0 6 -11 28 -25 50 -14 22 -25 42 -25
45 0 3 -15 21 -32 40 -18 18 -46 60 -63 92 -16 32 -35 63 -41 68 -17 14 -204
294 -204 305 0 4 -6 10 -12 13 -7 3 -21 22 -32 43 -10 22 -22 46 -27 54 -19
31 -31 69 -36 110 -2 19 -10 49 -18 67 -9 17 -17 49 -20 70 -6 61 -33 176 -50
216 -20 49 -19 96 4 131 11 17 17 34 14 39 -3 6 -1 7 5 3 11 -7 14 0 67 124
15 36 31 69 36 74 5 6 9 20 9 32 0 22 29 93 81 199 16 33 29 65 29 71 0 6 6
17 14 23 8 7 17 23 20 37 4 14 17 42 30 62 12 20 28 53 36 72 7 19 26 54 42
78 15 24 28 50 28 58 0 7 5 14 10 14 6 0 10 6 10 13 0 6 11 26 25 42 l24 30 2
-25 1 -25 8 25 c4 14 8 18 9 9 1 -9 13 -28 27 -42 22 -22 23 -26 9 -35 -14 -7
-12 -11 14 -24 l31 -15 -24 -26 c-24 -26 -24 -28 -9 -59 9 -18 27 -46 41 -63
14 -16 31 -44 38 -62 10 -23 31 -41 73 -63 33 -18 62 -39 66 -47 3 -9 -6 -31
-20 -49 -79 -104 -72 -220 17 -274 18 -11 56 -25 85 -31 46 -11 61 -10 106 6
57 19 107 73 107 115 0 16 4 20 15 16 8 -3 15 -1 15 4 0 6 11 10 25 10 25 0
25 0 5 -20 -22 -22 -27 -69 -8 -88 15 -15 61 -15 76 0 17 17 15 49 -4 76 -15
21 -14 22 16 22 18 0 55 -6 83 -14 29 -8 88 -22 132 -32 44 -9 85 -20 90 -24
6 -4 22 -10 38 -14 15 -3 27 -11 27 -17 0 -17 -43 -27 -77 -17 -38 10 -55 3
-98 -42 -25 -26 -27 -33 -15 -40 39 -26 266 -74 400 -86 l65 -6 54 53 c54 52
63 58 108 62 13 1 23 5 23 9 0 12 107 21 126 10 16 -9 15 -10 -4 -16 -13 -4
-22 -16 -22 -27 0 -11 -6 -22 -14 -25 -8 -3 -12 -12 -9 -20 4 -12 0 -14 -19
-9 -16 4 -29 1 -38 -10 -15 -19 -5 -34 12 -17 7 7 25 12 41 12 15 0 26 4 23 9
-4 5 8 13 26 16 18 4 36 13 40 19 7 11 11 12 43 15 9 0 15 11 15 26 0 31 39
43 83 27 59 -22 57 -39 57 533 l0 523 -24 6 c-14 3 -32 3 -42 -1 -13 -5 -16
-3 -11 10 4 11 1 17 -8 17 -8 0 -15 -6 -15 -12 0 -10 -23 -13 -84 -12 -46 1
-89 5 -95 8 -6 4 -16 4 -23 0 -22 -14 -59 -13 -65 2 -3 8 -12 14 -20 14 -8 0
-12 -4 -9 -9 4 -5 -10 -5 -32 0 -49 11 -109 11 -114 0 -1 -5 -36 -11 -76 -14
-57 -4 -75 -2 -79 9 -7 18 -90 19 -96 2 -3 -10 -9 -10 -28 0 -13 6 -37 11 -54
11 -16 -1 -201 -1 -410 0 -382 1 -438 -1 -459 -17 -16 -13 -138 -23 -155 -13
-7 5 -10 14 -7 20 5 7 -2 11 -18 11 -40 0 -39 17 2 24 20 3 461 6 980 6 l942
0 0 2038 0 2038 -71 -23 c-40 -13 -83 -23 -98 -23 -14 0 -39 -7 -56 -16 -40
-22 -85 -34 -85 -25 0 15 40 100 50 106 5 3 7 12 4 19 -3 8 -1 17 5 21 6 3 11
17 11 31 0 13 5 24 10 24 6 0 10 9 10 21 0 25 62 55 153 73 l62 13 3 262 c2
196 -1 261 -9 255 -7 -4 -20 3 -30 17 -15 20 -19 21 -19 7 0 -18 -20 -24 -34
-11 -4 4 -25 6 -47 4 -24 -1 -50 4 -63 13 -13 8 -33 12 -45 9 -27 -7 -144 15
-152 29 -4 6 -28 11 -53 11 -26 0 -49 4 -53 9 -3 6 -8 5 -13 -2 -5 -9 -16 -8
-45 4 -20 9 -53 16 -71 16 -19 0 -34 4 -34 9 0 5 -25 15 -55 21 -30 6 -55 14
-55 18 0 4 -18 8 -40 9 -22 0 -51 8 -65 17 -13 9 -32 16 -41 16 -9 0 -40 11
-69 24 -61 29 -126 29 -156 0 -17 -18 -17 -23 -5 -74 7 -30 29 -91 49 -135 65
-147 147 -452 147 -549 l0 -29 -22 20 c-13 11 -40 30 -61 42 -20 13 -35 27
-32 31 7 11 -26 29 -42 23 -6 -2 -17 5 -25 15 -7 11 -39 31 -70 46 -32 15 -64
37 -72 48 -8 11 -19 17 -24 14 -6 -3 -21 5 -33 19 -16 16 -35 25 -55 25 -18 0
-34 6 -37 13 -2 6 -22 18 -43 26 -22 8 -51 23 -66 34 -15 11 -35 21 -45 22
-10 1 -62 23 -115 49 -67 32 -98 52 -98 64 0 15 -2 15 -10 2 -9 -13 -12 -13
-25 4 -7 10 -18 15 -23 12 -5 -3 -17 1 -28 8 -10 8 -23 12 -30 9 -6 -2 -33 7
-59 21 -26 15 -58 26 -69 26 -12 0 -33 8 -46 17 -14 10 -26 16 -28 15 -1 -2
-17 0 -35 4 -17 4 -45 9 -62 10 -45 3 -45 3 -45 15 0 6 7 9 15 5 13 -4 13 -2
5 14 -5 10 -10 30 -10 44 0 14 -4 26 -9 26 -5 0 -13 9 -16 20 -4 11 -27 36
-51 55 -54 40 -117 53 -175 36 -49 -15 -116 -83 -131 -133 -6 -21 -17 -38 -25
-38 -8 0 -13 -8 -12 -17 3 -31 0 -32 -40 -18 -34 11 -41 12 -51 0 -6 -7 -20
-12 -31 -10 -10 2 -19 -1 -19 -7 0 -5 -7 -8 -15 -5 -8 4 -17 2 -20 -3 -3 -5
-24 -7 -46 -5 -31 3 -39 1 -36 -10 4 -8 -4 -15 -19 -18 -13 -2 -24 -1 -24 2 0
12 15 28 32 34 9 3 19 22 23 46 4 23 11 41 15 41 5 0 12 10 16 23 4 12 22 39
40 60 19 20 34 43 35 50 0 6 18 27 41 45 22 17 34 32 27 32 -8 0 -4 8 9 20 12
11 26 20 31 20 17 0 24 22 10 31 -20 13 -36 11 -53 -6 -8 -9 -19 -16 -23 -17
-21 -2 -53 -19 -53 -28 0 -5 -13 -10 -30 -10 -24 0 -30 4 -30 20 0 12 6 31 14
43 19 30 57 184 49 202 -3 9 -1 21 5 28 14 16 6 138 -13 202 -1 6 -2 12 -1 15
0 3 -7 16 -17 30 -9 13 -17 31 -17 40 0 8 -11 28 -25 44 -14 16 -24 34 -22 40
2 6 0 15 -5 21 -5 5 -17 26 -26 45 -10 20 -27 37 -42 41 -17 5 -19 7 -7 8 14
1 17 6 12 21 -6 19 -2 20 57 20 105 1 371 -2 403 -4 17 -1 100 -3 185 -4 111
-2 150 -6 138 -13 -10 -5 -18 -15 -18 -20 0 -15 125 -4 188 16 46 15 97 17
454 13 303 -3 403 -7 406 -16 2 -7 8 -12 13 -12 6 0 7 5 4 10 -4 6 18 9 60 8
37 -1 60 -5 53 -10 -13 -8 29 -14 62 -9 8 1 30 2 47 3 18 0 31 4 28 9 -3 4 89
7 205 6 151 -1 213 -5 218 -14 6 -9 54 -11 182 -9 96 2 186 6 200 8 14 3 40 6
58 6 28 2 32 6 32 28 0 15 -8 33 -17 41 -17 14 -17 14 0 9 16 -5 17 19 17 403
l0 408 -112 21 c-62 12 -187 33 -276 46 -90 14 -166 27 -169 29 -2 3 29 52 70
109 40 56 86 121 100 143 14 22 46 69 72 105 25 36 57 82 70 103 14 20 29 37
33 36 4 0 43 -43 87 -96 44 -53 90 -108 102 -122 l22 -26 1 798 0 797 -38 0
c-29 0 -57 -12 -119 -52z m-199 -413 c-4 -8 -8 -15 -10 -15 -2 0 -4 7 -4 15 0
8 4 15 10 15 5 0 7 -7 4 -15z m6 -55 c0 -13 -5 -18 -15 -14 -21 8 -19 -2 5
-26 21 -21 36 -67 25 -78 -3 -4 -11 0 -15 8 -26 43 -28 44 -44 31 -18 -15 -36
-7 -36 16 0 10 6 13 16 9 13 -5 15 -1 10 19 -4 15 -2 25 4 25 6 0 9 4 5 9 -3
5 5 12 17 14 13 2 24 5 26 6 1 0 2 -8 2 -19z m-20 -130 c5 0 10 -5 10 -11 0
-11 -37 -3 -58 14 -10 7 -8 12 5 23 15 11 19 10 25 -7 4 -10 12 -19 18 -19z
m-103 -11 c5 -19 11 -21 49 -16 23 2 48 1 56 -4 9 -6 7 -9 -9 -9 -13 0 -23 -4
-23 -10 0 -5 7 -10 16 -10 12 0 15 -7 12 -24 -4 -20 0 -26 20 -31 23 -6 24 -7
6 -20 -13 -10 -15 -14 -5 -15 9 0 11 -6 6 -17 -4 -10 -7 -26 -7 -35 1 -22 -7
-23 -23 -1 -8 11 -14 13 -19 5 -4 -7 -2 -12 3 -12 6 0 11 -7 11 -15 0 -11 8
-13 32 -8 20 4 29 3 25 -4 -4 -6 0 -23 7 -39 13 -25 20 -79 17 -123 -1 -9 -10
-4 -26 13 -30 33 -30 32 -4 39 12 3 18 10 14 16 -3 6 -11 8 -17 5 -12 -8 -87
25 -111 49 -19 19 -37 15 -37 -9 0 -8 -6 -14 -12 -15 -7 0 5 -7 27 -15 49 -18
67 -34 40 -35 -18 0 -18 -1 3 -9 12 -5 22 -14 22 -20 0 -11 -35 -5 -55 10 -20
15 -51 17 -63 4 -9 -10 -3 -14 34 -20 26 -4 55 -15 66 -26 19 -19 20 -19 34
-1 14 17 15 17 8 -6 -4 -16 -3 -21 5 -17 21 13 51 -4 51 -30 l0 -25 -22 21
c-12 11 -27 20 -32 20 -6 0 0 -9 14 -20 20 -15 21 -20 8 -20 -9 0 -20 -5 -24
-12 -5 -8 -2 -9 9 -5 10 3 17 2 17 -3 0 -5 6 -7 13 -5 15 6 31 -5 45 -30 14
-27 -9 -60 -35 -51 -16 5 -16 4 1 -9 24 -18 20 -22 -30 -34 -21 -5 -32 -9 -23
-10 9 -1 20 -8 23 -17 5 -14 4 -15 -9 -4 -12 10 -15 10 -15 -1 0 -12 -2 -12
-9 0 -6 10 -10 10 -16 1 -4 -7 1 -14 14 -17 21 -5 21 -6 4 -22 -10 -10 -32
-24 -50 -33 -26 -13 -34 -14 -43 -3 -12 14 -53 8 -44 -6 3 -5 10 -7 15 -4 5 4
16 -1 25 -9 9 -9 20 -14 25 -11 5 4 6 0 3 -8 -2 -7 -14 -13 -26 -13 -11 1 -23
-5 -25 -11 -3 -7 2 -13 11 -13 24 0 19 -15 -9 -28 -16 -8 -25 -19 -23 -29 2
-14 -4 -18 -25 -17 -24 1 -27 -2 -21 -20 12 -37 10 -51 -8 -48 -12 2 -16 -2
-12 -13 3 -8 1 -15 -5 -15 -6 0 -8 -6 -5 -13 2 -7 -7 -19 -21 -27 -29 -16 -51
-7 -69 26 -6 10 -12 21 -13 23 -5 8 -53 9 -59 0 -3 -5 6 -9 19 -9 27 0 73 -46
54 -54 -7 -2 0 -5 16 -5 33 -1 37 -21 3 -21 -19 0 -23 -4 -19 -20 3 -12 0 -20
-6 -20 -7 0 -9 -5 -5 -12 4 -6 3 -8 -4 -4 -6 3 -13 2 -16 -2 -6 -10 -63 -8
-88 3 -24 10 -22 21 5 30 12 3 17 8 12 11 -13 5 -86 -31 -78 -40 10 -10 -14
-7 -41 5 -19 9 -29 9 -40 0 -9 -7 -17 -8 -20 -2 -3 5 0 12 6 14 9 4 10 6 1 6
-6 1 -15 -3 -18 -9 -10 -16 -33 -12 -54 11 -11 12 -24 18 -29 15 -5 -3 -12 3
-15 14 -5 20 -27 28 -27 10 0 -5 5 -10 10 -10 6 0 10 -5 10 -12 0 -9 -3 -9
-11 -1 -8 8 -20 8 -34 3 -22 -8 -35 -4 -35 11 0 4 12 10 27 14 27 6 28 7 8 22
-14 11 -16 17 -7 20 6 3 10 8 7 13 -8 12 33 23 83 23 23 -1 42 3 42 8 0 5 -12
9 -27 9 -16 0 -35 4 -43 10 -12 7 -11 10 5 16 11 5 20 3 23 -4 2 -7 8 -10 12
-7 5 3 3 17 -4 30 -16 30 -9 75 10 75 8 0 11 6 7 17 -5 14 1 12 33 -7 21 -13
45 -30 52 -37 16 -16 52 -17 52 -2 0 6 -6 9 -14 6 -8 -3 -20 1 -26 9 -7 8 -9
14 -4 14 5 1 -9 10 -30 21 -28 15 -35 23 -26 29 9 6 6 9 -11 12 -23 4 -23 5
-4 13 11 5 25 15 31 23 9 13 12 11 17 -9 5 -18 9 -21 18 -12 9 9 9 15 0 27
-14 16 -6 23 26 20 12 0 20 3 17 8 -3 4 -10 6 -15 3 -5 -4 -9 1 -9 9 0 9 -5
16 -12 16 -9 0 -9 3 0 12 10 10 17 10 32 0 17 -10 20 -10 20 3 0 9 -10 20 -22
25 -23 9 -23 9 2 10 23 1 24 2 7 14 -16 12 -16 14 -1 20 8 3 25 6 35 6 13 0
18 4 13 12 -4 6 1 17 11 25 11 7 15 14 9 14 -5 1 5 4 21 8 35 7 39 29 11 52
-20 17 -15 39 10 39 8 0 17 -6 20 -14 3 -8 19 -19 36 -25 24 -8 28 -8 20 2
-16 19 -18 51 -4 53 6 1 28 2 47 3 19 0 35 6 35 12 0 5 -4 8 -9 4 -6 -3 -15 5
-22 17 -7 13 -15 25 -18 28 -4 3 -12 17 -19 33 -9 22 -9 32 0 47 17 26 26 25
50 -5 11 -14 25 -24 30 -23 14 5 10 23 -4 23 -7 1 -12 7 -10 14 1 7 -3 19 -9
27 -9 11 -8 14 5 14 18 0 22 25 6 35 -6 4 -8 11 -4 16 3 5 10 6 16 3 6 -4 14
-1 18 5 5 9 11 8 24 -4 9 -9 16 -13 16 -9 0 3 7 1 15 -6 16 -13 79 -4 69 11
-3 5 -16 6 -30 3 -14 -4 -24 -2 -24 5 0 6 -10 11 -22 11 -23 1 -23 1 2 15 14
8 21 14 16 15 -6 0 -5 5 1 11 8 8 17 8 32 0 14 -8 21 -8 21 -1 0 5 8 10 18 10
20 0 27 29 8 31 -6 1 -15 2 -21 4 -5 1 -16 3 -22 3 -14 2 -18 63 -6 75 12 13
25 7 30 -14z m-52 -49 c3 -5 1 -10 -4 -10 -6 0 -11 5 -11 10 0 6 2 10 4 10 3
0 8 -4 11 -10z m190 -30 c3 -5 1 -10 -4 -10 -6 0 -11 5 -11 10 0 6 2 10 4 10
3 0 8 -4 11 -10z m-25 -260 c0 -5 -2 -10 -4 -10 -3 0 -8 5 -11 10 -3 6 -1 10
4 10 6 0 11 -4 11 -10z m-364 -23 c19 -10 20 -14 8 -25 -10 -9 -14 -10 -14 -1
0 6 -8 18 -17 25 -22 17 -5 17 23 1z m-86 -133 c0 -2 -7 -4 -15 -4 -8 0 -15 4
-15 10 0 5 7 7 15 4 8 -4 15 -8 15 -10z m-320 -588 c0 -2 -8 -10 -17 -17 -16
-13 -17 -12 -4 4 13 16 21 21 21 13z m467 -18 c-3 -8 -6 -5 -6 6 -1 11 2 17 5
13 3 -3 4 -12 1 -19z m-427 2 c0 -5 -8 -10 -17 -10 -15 0 -16 -2 -3 -10 13 -8
13 -10 -1 -10 -11 0 -21 -15 -28 -43 -16 -55 -57 -83 -84 -57 -9 9 -17 21 -17
26 0 5 5 2 10 -6 8 -13 10 -12 10 2 0 12 7 17 23 15 16 -1 21 3 19 16 -2 11 4
17 15 18 16 0 16 1 -2 9 -11 5 -15 9 -10 9 6 1 3 6 -5 12 -11 8 -7 9 18 5 19
-3 31 -2 27 4 -3 5 3 13 12 19 23 13 33 14 33 1z m-125 -170 c-3 -5 -1 -11 5
-15 21 -13 9 -23 -15 -12 -24 12 -32 27 -19 40 9 8 35 -4 29 -13z m45 10 c0
-5 -2 -10 -4 -10 -3 0 -8 5 -11 10 -3 6 -1 10 4 10 6 0 11 -4 11 -10z m148
-315 c-11 -25 -20 -30 -30 -19 -7 6 22 42 34 43 4 1 2 -10 -4 -24z m142 -15
c24 -21 29 -30 17 -30 -9 0 -17 -7 -17 -16 0 -12 -7 -14 -28 -9 -21 4 -33 1
-47 -15 -19 -20 -19 -21 3 -26 11 -4 22 -13 24 -22 3 -17 10 -12 52 38 14 17
20 20 26 10 4 -7 17 -10 29 -7 11 3 19 0 18 -5 -4 -20 22 -19 40 1 12 15 19
17 25 8 5 -9 14 -9 38 0 27 10 31 10 26 -3 -3 -9 -6 -19 -6 -24 0 -16 -111
-82 -131 -77 -10 3 -22 1 -25 -4 -3 -5 -14 -9 -25 -9 -27 0 -14 -20 14 -21 21
0 21 -1 2 -9 -28 -12 -85 -12 -85 0 0 7 -5 6 -13 -2 -16 -14 0 -39 19 -31 6 2
14 -3 18 -12 4 -11 -2 -17 -24 -21 -16 -4 -31 -12 -34 -19 -2 -7 -23 -16 -46
-20 -29 -5 -40 -11 -36 -20 3 -9 0 -12 -10 -8 -17 6 -19 -8 -2 -25 9 -9 9 -12
-2 -13 -8 -1 -19 -1 -23 0 -4 1 -15 -5 -23 -14 -9 -8 -29 -15 -45 -15 -16 0
-29 -4 -29 -10 0 -5 5 -10 10 -10 6 0 10 -5 10 -11 0 -6 -7 -9 -15 -5 -11 4
-15 -2 -15 -27 l0 -32 -67 -4 c-92 -5 -331 -7 -423 -2 -41 1 -103 0 -137 -3
-43 -4 -64 -3 -69 6 -4 7 -2 14 6 16 8 3 23 15 34 27 12 13 40 33 64 45 23 12
40 25 37 30 -2 4 4 15 15 25 11 10 20 15 20 10 0 -4 -8 -14 -17 -21 -15 -11
-15 -13 -3 -13 22 0 50 24 50 43 0 9 5 16 11 16 5 0 8 -4 5 -9 -9 -14 32 -1
45 15 6 8 20 14 30 14 11 0 24 10 30 23 8 19 16 22 53 19 24 -2 57 3 77 12 54
25 99 53 93 58 -2 3 8 3 23 0 15 -3 31 -10 35 -16 5 -7 8 -4 8 7 0 9 -5 17
-12 17 -6 0 1 14 17 30 16 17 23 30 16 30 -7 0 -9 5 -6 11 4 5 17 9 28 7 30
-3 47 9 40 29 -5 13 -1 15 30 9 20 -4 38 -2 42 3 9 15 35 2 35 -18 0 -14 2
-14 10 -1 6 9 6 18 0 24 -20 20 -9 27 33 23 23 -2 32 -2 20 0 -36 7 -27 30 13
35 24 3 38 -1 43 -10 6 -10 10 -11 15 -3 4 6 16 11 27 11 18 0 19 2 5 15 -8 8
-24 15 -36 15 -12 0 -18 5 -15 10 12 19 52 10 85 -20z m-260 -40 c0 -5 -2 -10
-4 -10 -3 0 -8 5 -11 10 -3 6 -1 10 4 10 6 0 11 -4 11 -10z m630 -174 c0 -7
-7 -19 -15 -26 -13 -11 -15 -8 -13 14 2 26 28 38 28 12z m-185 -26 c-3 -5 -10
-10 -16 -10 -5 0 -9 5 -9 10 0 6 7 10 16 10 8 0 12 -4 9 -10z m75 0 c-20 -13
-43 -13 -35 0 3 6 16 10 28 10 18 0 19 -2 7 -10z m75 -34 c8 4 15 1 15 -5 0
-6 -11 -11 -24 -11 -14 0 -28 -5 -31 -10 -4 -6 -11 -8 -16 -5 -5 3 -6 -1 -3
-9 7 -19 25 -21 42 -4 9 9 13 8 17 -4 4 -9 -5 -27 -20 -44 -25 -27 -28 -28
-40 -11 -10 15 -21 17 -50 11 -25 -4 -33 -10 -26 -17 15 -15 -15 -40 -39 -32
-25 8 -80 -3 -80 -16 0 -5 8 -9 18 -9 14 0 15 -2 2 -10 -21 -13 -64 -12 -78 2
-9 9 -15 8 -24 -4 -13 -16 -43 -26 -112 -35 -37 -5 -39 -4 -23 11 9 9 22 15
29 14 6 -2 12 4 13 12 0 10 10 14 28 13 32 -2 80 34 73 54 -3 7 8 20 24 28 17
9 30 19 30 23 0 13 58 33 83 28 15 -3 31 1 38 10 7 9 8 14 1 14 -6 0 -13 -6
-15 -12 -3 -8 -6 -6 -6 5 -1 20 9 21 41 7 18 -9 32 -6 63 9 33 16 41 17 48 6
4 -8 14 -12 22 -9z m-1325 -76 c-6 -11 -13 -20 -15 -20 -2 0 -3 9 -2 20 1 11
7 20 14 20 11 0 11 -5 3 -20z m-1593 -6 c-3 -3 -12 -4 -19 -1 -8 3 -5 6 6 6
11 1 17 -2 13 -5z m3203 -90 c0 -2 -9 -4 -20 -4 -11 0 -20 4 -20 9 0 5 9 7 20
4 11 -3 20 -7 20 -9z m-782 -35 c-2 -6 -8 -10 -13 -10 -5 0 -11 4 -13 10 -2 6
4 11 13 11 9 0 15 -5 13 -11z m195 -6 c-7 -2 -19 -2 -25 0 -7 3 -2 5 12 5 14
0 19 -2 13 -5z m-5103 -203 c0 -5 -5 -10 -11 -10 -5 0 -7 5 -4 10 3 6 8 10 11
10 2 0 4 -4 4 -10z m-198 -152 c84 -57 169 -111 189 -122 74 -39 71 -32 138
-311 16 -66 32 -149 36 -185 4 -36 9 -76 11 -90 3 -14 7 -41 9 -60 3 -19 7
-51 9 -70 3 -19 8 -66 12 -105 3 -38 8 -73 11 -78 2 -4 -3 -10 -12 -13 -9 -4
-14 -13 -11 -20 3 -8 0 -11 -10 -7 -7 3 -14 1 -14 -4 0 -5 -26 -18 -57 -28
-32 -11 -66 -27 -76 -35 -9 -8 -30 -17 -44 -20 -15 -3 -33 -15 -39 -28 -6 -13
-15 -23 -20 -23 -5 1 -9 -5 -9 -11 0 -7 -12 -14 -27 -16 -20 -2 -28 1 -28 12
0 19 -19 20 -53 3 l-25 -13 29 -20 c16 -10 29 -22 29 -26 0 -4 12 -5 28 -2 15
3 38 1 52 -5 22 -10 21 -11 -17 -8 -33 2 -39 0 -31 -10 11 -13 -3 -19 -16 -6
-11 12 -94 15 -101 4 -3 -6 -18 -11 -32 -11 -22 0 -24 -2 -13 -15 12 -14 15
-14 36 0 26 17 64 20 64 5 0 -5 -3 -10 -7 -11 -25 -2 -46 -8 -51 -15 -4 -4 1
-4 10 -1 26 9 34 -30 12 -54 -14 -15 -25 -18 -48 -13 -25 5 -29 4 -18 -7 18
-19 15 -40 -5 -32 -14 5 -15 1 -10 -25 6 -31 6 -31 -26 -26 -33 6 -67 36 -67
60 0 8 5 14 12 14 9 0 9 3 0 12 -15 15 -16 54 -2 63 6 4 8 10 5 15 -3 4 -8 40
-11 79 -5 54 -4 71 6 71 9 0 9 4 3 13 -14 17 -25 67 -16 67 5 0 8 80 9 178 0
97 4 238 7 312 4 74 8 183 9 242 0 59 5 105 9 102 5 -3 9 -1 9 5 0 5 -6 11
-12 14 -10 3 -10 7 1 20 9 11 10 17 2 17 -6 0 -11 7 -11 15 0 8 6 15 13 15 9
0 9 2 0 8 -10 6 -12 45 -10 145 1 75 5 137 9 137 3 0 76 -46 160 -102z m2063
-110 c-7 -47 -30 -85 -60 -102 -11 -6 -26 -20 -34 -31 -19 -27 -163 -168 -284
-280 -54 -49 -137 -128 -185 -173 -48 -46 -103 -96 -122 -110 -19 -15 -54 -46
-76 -69 -45 -46 -53 -50 -72 -31 -19 19 -15 44 25 151 36 98 38 101 112 161
41 34 109 93 151 132 129 119 381 315 424 330 21 8 46 20 54 26 18 15 54 36
65 37 5 1 6 -18 2 -41z m1200 -278 c3 -5 1 -10 -4 -10 -6 0 -11 5 -11 10 0 6
2 10 4 10 3 0 8 -4 11 -10z m-130 -300 c3 -5 1 -10 -4 -10 -6 0 -11 5 -11 10
0 6 2 10 4 10 3 0 8 -4 11 -10z m-1950 -160 c3 -5 1 -10 -4 -10 -6 0 -11 5
-11 10 0 6 2 10 4 10 3 0 8 -4 11 -10z m-478 -136 c-3 -3 -12 -4 -19 -1 -8 3
-5 6 6 6 11 1 17 -2 13 -5z m-376 -137 c-10 -9 -11 -8 -5 6 3 10 9 15 12 12 3
-3 0 -11 -7 -18z m-21 -7 c0 -5 -5 -10 -11 -10 -5 0 -7 5 -4 10 3 6 8 10 11
10 2 0 4 -4 4 -10z m-95 -40 c3 -5 -1 -10 -9 -10 -9 0 -16 5 -16 10 0 6 4 10
9 10 6 0 13 -4 16 -10z m-150 -160 c-28 -12 -37 -12 -30 0 3 6 16 10 28 9 21
0 21 -1 2 -9z m-170 -229 c-3 -6 -11 -8 -17 -5 -6 4 -5 9 3 15 16 10 23 4 14
-10z m1185 -186 c0 -12 -23 -57 -51 -100 -28 -42 -56 -94 -61 -114 -12 -45
-25 -61 -48 -61 -28 0 -38 46 -28 125 11 84 33 121 101 175 l52 42 17 -22 c10
-12 18 -32 18 -45z m1435 -183 c-3 -3 -11 0 -18 7 -9 10 -8 11 6 5 10 -3 15
-9 12 -12z m295 -2 c0 -5 -2 -10 -4 -10 -3 0 -8 5 -11 10 -3 6 -1 10 4 10 6 0
11 -4 11 -10z m1207 -62 c-3 -8 -6 -5 -6 6 -1 11 2 17 5 13 3 -3 4 -12 1 -19z
m1644 -159 c19 -6 40 -13 47 -15 7 -2 10 -9 7 -14 -5 -8 -15 -6 -31 4 -13 9
-30 16 -38 16 -8 0 -18 5 -21 10 -8 13 -6 12 36 -1z m-3946 -533 c32 -17 22
-25 -45 -33 -28 -3 -53 -10 -56 -14 -9 -16 -91 -10 -98 6 -3 8 -1 15 5 15 6 0
7 5 4 10 -3 6 -2 10 4 10 5 0 12 -6 14 -12 4 -10 8 -10 15 1 7 10 21 12 50 7
30 -4 41 -2 46 9 7 19 26 19 61 1z m-255 -56 c0 -5 -7 -10 -15 -10 -8 0 -15 5
-15 10 0 6 7 10 15 10 8 0 15 -4 15 -10z m794 -35 c25 -19 62 -43 83 -54 84
-45 90 -58 117 -286 8 -66 17 -127 20 -135 4 -8 -3 -29 -13 -47 -15 -23 -33
-35 -73 -47 -29 -9 -66 -28 -83 -42 l-30 -26 30 6 c227 44 272 48 433 43 130
-4 168 -8 190 -22 37 -24 62 -56 62 -81 0 -12 9 -43 19 -70 66 -169 102 -269
121 -341 l23 -81 -47 -60 c-25 -33 -69 -81 -98 -106 -51 -45 -51 -45 -27 -55
13 -5 36 -22 50 -37 28 -31 39 -86 42 -209 2 -66 1 -68 -98 -98 -27 -9 -135
-44 -240 -77 -104 -34 -217 -70 -250 -80 -33 -10 -152 -51 -265 -90 l-205 -72
-87 11 c-106 14 -117 18 -122 45 -21 100 -42 179 -61 221 -43 98 -39 133 23
179 32 23 32 24 10 30 -13 3 -56 6 -97 6 -97 0 -147 15 -160 49 -42 112 -82
274 -86 353 -2 37 -7 87 -10 112 -4 26 -4 70 -1 99 8 58 1 52 159 137 l89 47
-64 7 c-35 4 -78 2 -98 -4 -19 -5 -36 -10 -37 -10 -2 0 -3 13 -3 29 0 17 -4
32 -9 35 -5 3 -12 34 -16 68 -4 35 -9 70 -10 78 -19 106 -22 354 -5 375 7 8
10 28 8 45 -7 49 25 69 144 92 261 49 547 96 585 97 33 1 51 -6 87 -34z m-824
6 c0 -6 -4 -12 -10 -16 -5 -3 -6 -13 -3 -23 5 -16 4 -16 -11 -1 -10 9 -14 22
-10 32 6 18 34 24 34 8z m-43 -53 c-4 -12 -2 -27 4 -34 12 -14 -26 -64 -48
-64 -20 0 -16 48 8 86 23 38 44 45 36 12z m4363 -398 c0 -5 -4 -10 -10 -10 -5
0 -10 5 -10 10 0 6 5 10 10 10 6 0 10 -4 10 -10z m-2852 -43 c6 0 12 -4 12 -9
0 -5 8 -5 18 0 12 6 22 3 35 -10 9 -10 15 -18 13 -18 -3 0 8 -14 24 -32 16
-17 27 -34 24 -37 -3 -3 -11 1 -17 10 -7 9 -17 14 -23 12 -6 -2 -17 3 -24 12
-7 8 -18 15 -24 15 -6 0 -27 5 -46 10 -28 8 -36 15 -38 36 -2 21 1 25 16 19 9
-4 23 -8 30 -8z m437 -567 c3 -5 1 -10 -4 -10 -6 0 -11 5 -11 10 0 6 2 10 4
10 3 0 8 -4 11 -10z m-111 -299 c6 -10 -22 -37 -29 -29 -8 7 5 38 15 38 5 0
11 -4 14 -9z m86 -251 c0 -5 -2 -10 -4 -10 -3 0 -8 5 -11 10 -3 6 -1 10 4 10
6 0 11 -4 11 -10z m299 -180 c203 -83 703 -345 738 -388 30 -35 29 -46 -12
-117 -19 -33 -52 -96 -74 -140 -52 -104 -129 -246 -145 -265 -7 -8 -18 -30
-26 -47 -9 -25 -19 -33 -37 -33 -20 0 -23 -4 -18 -20 6 -20 7 -20 -74 -36 -22
-5 -23 -6 -5 -19 11 -8 17 -15 14 -15 -38 -8 -70 -8 -70 0 0 6 -10 6 -27 -1
-14 -5 -33 -7 -41 -4 -7 3 -23 -2 -35 -10 -28 -20 -97 -20 -97 0 0 7 -6 18
-14 22 -8 4 -44 44 -80 87 -47 56 -66 88 -66 108 0 26 -2 27 -26 17 -15 -5
-36 -7 -47 -3 -12 4 -17 2 -13 -4 3 -6 1 -14 -5 -18 -6 -3 -15 0 -20 7 -7 12
-9 12 -9 0 0 -8 -6 -11 -16 -7 -14 5 -15 4 -5 -8 11 -12 6 -16 -26 -22 -21 -5
-47 -7 -58 -6 -18 2 -17 1 3 -8 12 -5 22 -11 22 -14 0 -10 -83 -46 -106 -46
-19 0 -25 -4 -20 -15 5 -15 -11 -19 -61 -16 -11 1 -24 -3 -28 -8 -3 -6 2 -11
12 -11 15 0 14 -2 -4 -15 -12 -9 -35 -15 -50 -15 -15 0 -56 -2 -90 -3 -37 -2
-63 0 -63 6 0 5 -13 7 -30 4 -20 -5 -30 -2 -31 6 0 6 -4 2 -9 -10 -5 -13 -17
-23 -27 -22 -12 0 -14 2 -4 6 21 8 -7 22 -32 15 -20 -5 -20 -6 -2 -12 10 -4
-4 -6 -32 -6 -28 1 -49 4 -47 7 2 4 -9 9 -26 11 -16 2 -27 1 -24 -3 9 -15
-153 -25 -335 -20 l-63 1 5 29 c4 16 3 31 -1 33 -10 4 -83 158 -112 233 -12
33 -29 75 -36 93 -8 18 -14 39 -14 46 0 8 -9 33 -20 57 -24 54 -25 69 -3 69
10 0 26 11 38 24 18 22 120 63 360 144 33 12 125 44 205 73 80 29 186 67 235
84 50 18 120 46 157 63 37 17 98 42 135 56 37 13 118 45 178 70 61 25 117 46
125 46 8 0 48 -14 89 -30z m-1925 4 c9 -24 2 -26 -12 -4 -7 11 -8 20 -3 20 5
0 12 -7 15 -16z m31 -104 c3 -5 1 -10 -4 -10 -6 0 -11 5 -11 10 0 6 2 10 4 10
3 0 8 -4 11 -10z m25 -51 c0 -6 -4 -7 -10 -4 -5 3 -10 11 -10 16 0 6 5 7 10 4
6 -3 10 -11 10 -16z m444 -821 c8 -24 6 -32 -19 -58 -29 -30 -77 -41 -90 -20
-4 6 8 33 26 61 36 57 67 63 83 17z m-2267 -63 c12 -8 28 -12 37 -9 9 3 16 1
16 -5 0 -13 -70 -12 -87 2 -13 9 -9 27 5 27 4 0 17 -7 29 -15z m4123 -19 c0
-3 -4 -8 -10 -11 -5 -3 -10 -1 -10 4 0 6 5 11 10 11 6 0 10 -2 10 -4z m-1867
-37 c35 1 57 -2 57 -8 0 -7 -35 -11 -97 -11 -89 1 -96 2 -79 15 12 9 28 12 40
8 12 -4 47 -6 79 -4z m-265 -56 c2 -8 -5 -13 -16 -13 -35 0 -56 -40 -89 -168
-46 -179 -90 -382 -96 -445 -3 -27 -8 -30 -35 -19 -7 2 -16 2 -19 -2 -4 -3 1
-6 9 -6 35 0 37 -22 13 -150 -13 -69 -32 -167 -41 -217 -10 -51 -22 -93 -28
-93 -6 0 -6 -4 1 -11 7 -7 8 -21 2 -43 -5 -17 -10 -50 -10 -73 -1 -24 -8 -48
-16 -54 -9 -8 -10 -14 -4 -19 12 -7 -18 -233 -31 -238 -5 -2 -5 -8 -2 -13 8
-13 -15 -69 -28 -69 -5 0 -6 -5 -3 -11 4 -5 -4 -20 -17 -32 -13 -12 -50 -57
-82 -100 -32 -42 -62 -74 -67 -71 -5 3 -8 1 -7 -5 2 -5 -6 -24 -17 -41 -20
-30 -21 -30 -85 -25 -36 3 -75 6 -87 6 -13 1 -23 6 -23 11 0 6 -9 8 -21 5 -11
-3 -36 1 -55 9 -19 8 -62 15 -97 16 -39 0 -68 6 -79 16 -13 11 -18 12 -18 2 0
-8 -6 -10 -17 -5 -10 4 -26 8 -36 9 -10 0 -22 7 -26 15 -6 8 -16 11 -31 6 -15
-5 -20 -4 -16 4 4 6 2 11 -4 11 -6 0 -9 8 -6 18 4 13 0 18 -14 19 -16 1 -20
-2 -15 -18 4 -10 2 -19 -4 -19 -6 0 -8 -7 -5 -15 4 -9 0 -15 -9 -15 -8 0 -17
-6 -20 -14 -3 -9 -15 -12 -31 -9 -22 4 -26 11 -26 37 0 43 51 194 98 292 22
43 42 92 46 108 4 16 20 41 35 56 36 36 93 45 214 34 106 -10 127 -8 127 12 0
8 -19 59 -42 112 -22 53 -76 187 -119 297 -42 110 -99 256 -127 325 -55 138
-187 499 -197 543 -4 15 -11 30 -16 33 -5 3 -9 12 -9 20 0 12 88 14 647 12
506 -2 647 -6 651 -15z m1214 5 c15 1 28 -2 28 -8 0 -11 -39 -14 -64 -4 -9 3
-16 10 -16 16 0 5 5 6 12 2 7 -5 25 -7 40 -6z m374 -15 c-7 -7 -26 7 -26 19 0
6 6 6 15 -2 9 -7 13 -15 11 -17z m109 17 c6 -10 -33 -20 -51 -13 -8 3 -14 9
-14 13 0 11 59 10 65 0z m533 3 c63 -8 44 -15 -49 -20 -91 -4 -89 -3 -139 -93
-15 -26 -32 -44 -42 -44 -10 1 -14 -5 -11 -16 8 -29 -33 -103 -66 -123 -17
-10 -31 -25 -31 -33 0 -8 4 -13 8 -10 14 8 7 -26 -16 -76 -11 -27 -26 -48 -32
-48 -6 0 -8 -4 -5 -10 7 -12 -19 -53 -28 -43 -7 6 -11 -11 -8 -34 2 -16 -11
-17 -27 -1 -9 9 -10 5 -4 -18 10 -37 4 -67 -13 -60 -7 2 -16 -2 -19 -10 -3 -9
-1 -12 4 -9 6 3 10 1 10 -5 0 -34 -136 -300 -153 -300 -4 0 -5 4 -2 10 3 5 10
33 15 62 5 29 18 96 29 148 11 52 27 149 36 215 24 184 25 190 56 345 30 151
29 159 -16 161 l-20 0 20 9 c21 10 431 12 503 3z m-923 -13 c3 -5 2 -10 -4
-10 -5 0 -13 5 -16 10 -3 6 -2 10 4 10 5 0 13 -4 16 -10z m90 0 c3 -5 1 -10
-4 -10 -6 0 -11 5 -11 10 0 6 2 10 4 10 3 0 8 -4 11 -10z m35 0 c0 -5 -4 -10
-10 -10 -5 0 -10 5 -10 10 0 6 5 10 10 10 6 0 10 -4 10 -10z m73 -50 c-3 -11
-9 -17 -14 -15 -10 7 -1 35 11 35 5 0 6 -9 3 -20z m-14 -36 c1 -1 0 -7 -4 -13
-7 -13 -45 4 -45 20 0 9 37 4 49 -7z m-568 -17 c-13 -13 -26 -3 -16 12 3 6 11
8 17 5 6 -4 6 -10 -1 -17z m486 -22 c9 -25 -4 -29 -17 -6 -7 15 -7 21 0 21 6
0 13 -7 17 -15z m-17 -25 c6 -11 17 -16 28 -13 14 3 21 -2 25 -19 4 -12 2 -27
-3 -32 -7 -7 -10 -6 -10 1 0 11 -57 29 -66 20 -3 -2 3 -18 13 -35 14 -25 15
-33 4 -46 -9 -11 -18 -13 -30 -6 -10 5 -23 5 -32 -1 -12 -8 -11 -12 5 -24 22
-17 61 -20 51 -5 -3 6 -1 10 4 10 6 0 11 -2 11 -4 0 -2 3 -12 7 -22 4 -12 3
-15 -5 -10 -7 4 -12 4 -12 1 0 -3 13 -11 30 -16 34 -12 31 -29 -6 -29 -15 0
-23 -4 -19 -11 4 -6 13 -8 21 -5 8 3 24 1 36 -4 13 -5 17 -10 11 -11 -7 -1
-17 -2 -22 -3 -5 0 -13 -4 -17 -8 -14 -15 -44 -9 -38 7 5 12 0 14 -24 9 -16
-3 -38 -2 -48 4 -11 5 -28 6 -39 1 -17 -6 -15 -8 10 -8 24 -1 27 -3 15 -12
-12 -8 -9 -9 11 -5 19 4 29 1 33 -9 3 -8 0 -16 -7 -16 -7 -1 2 -5 18 -9 l30
-8 -30 -1 c-23 -1 -27 -3 -15 -11 10 -7 11 -10 2 -10 -7 0 -15 7 -19 15 -3 9
-13 15 -22 14 -33 -3 -43 1 -38 16 5 11 -2 14 -36 11 -32 -3 -45 1 -55 15 -16
23 -29 24 -29 3 0 -17 55 -45 97 -49 41 -5 80 -23 80 -39 0 -19 -36 -40 -55
-32 -8 3 -22 -2 -31 -11 -16 -16 -16 -16 -10 3 6 19 2 20 -76 18 -104 -3 -100
-2 -93 -14 3 -5 16 -10 28 -11 21 0 21 -1 2 -8 -12 -5 -23 -4 -27 3 -5 7 -8 7
-8 1 0 -6 -10 -11 -22 -12 l-23 -2 23 13 c12 6 20 15 16 19 -4 3 -1 13 6 22
10 12 10 15 -3 15 -9 0 -18 -4 -21 -9 -9 -14 -57 0 -63 18 -2 9 -9 24 -14 34
-6 11 -6 17 2 17 8 0 8 4 0 14 -8 9 -8 16 -2 20 5 4 12 2 16 -3 3 -6 12 -8 20
-4 19 7 19 -2 -1 -21 -8 -9 -11 -16 -5 -16 20 0 42 33 37 56 -5 17 -1 24 16
30 13 4 24 2 26 -5 2 -6 8 -11 14 -11 6 0 8 7 4 15 -3 9 0 15 8 15 18 0 65 39
49 40 -7 0 -13 7 -13 15 0 10 10 15 29 15 23 0 31 -6 40 -30 5 -16 15 -30 21
-30 17 0 23 29 10 45 -7 8 -14 28 -16 44 -3 28 -2 29 26 21 17 -5 30 -6 30 -3
0 3 7 0 15 -7 8 -7 15 -9 15 -5 0 4 -10 15 -22 26 l-23 18 22 1 c13 0 24 8 28
20 7 21 20 26 29 11 4 -5 0 -11 -6 -13 -8 -3 -4 -9 10 -17 13 -7 22 -8 22 -2
0 6 10 19 22 31 18 17 19 20 5 20 -9 0 -17 7 -17 15 0 19 27 9 40 -15z m90 20
c0 -5 -4 -10 -9 -10 -6 0 -13 5 -16 10 -3 6 1 10 9 10 9 0 16 -4 16 -10z m-15
-20 c3 -5 2 -10 -4 -10 -5 0 -13 5 -16 10 -3 6 -2 10 4 10 5 0 13 -4 16 -10z
m-17 -104 c2 -9 -2 -16 -8 -16 -6 0 -8 -4 -5 -10 9 -15 -4 -30 -20 -23 -10 3
-15 19 -15 44 0 36 2 38 23 30 12 -5 23 -16 25 -25z m-103 -36 c3 -5 1 -10 -4
-10 -6 0 -11 5 -11 10 0 6 2 10 4 10 3 0 8 -4 11 -10z m910 0 c3 -5 1 -10 -4
-10 -6 0 -11 5 -11 10 0 6 2 10 4 10 3 0 8 -4 11 -10z m-1045 -160 c0 -5 -2
-10 -4 -10 -3 0 -8 5 -11 10 -3 6 -1 10 4 10 6 0 11 -4 11 -10z m239 -15 c3
-16 1 -17 -11 -7 -8 6 -18 9 -21 6 -3 -4 -14 -3 -24 1 -17 7 -17 8 2 15 30 13
49 7 54 -15z m-277 -94 c47 -23 39 -32 -21 -24 -55 7 -57 8 -41 28 16 19 18
19 62 -4z m124 -37 c-13 -9 -14 -13 -4 -17 7 -2 -8 -2 -33 0 -26 3 -56 0 -69
-7 -19 -10 -25 -9 -39 5 -15 16 -15 17 6 12 29 -7 143 22 144 37 0 6 3 5 6 -3
3 -8 -2 -20 -11 -27z m-280 -11 c-7 -7 -26 7 -26 19 0 6 6 6 15 -2 9 -7 13
-15 11 -17z m74 -5 c0 -10 -2 -18 -3 -18 -2 0 -11 8 -20 18 -15 16 -15 18 3
18 13 0 20 -7 20 -18z m48 -35 c-10 -2 -26 -2 -35 0 -10 3 -2 5 17 5 19 0 27
-2 18 -5z m69 1 c-3 -3 -12 -4 -19 -1 -8 3 -5 6 6 6 11 1 17 -2 13 -5z m173
-4 c8 -5 12 -12 9 -15 -8 -8 -39 5 -39 16 0 11 11 11 30 -1z m-80 -29 c0 -10
-52 -31 -61 -25 -15 9 -10 26 6 21 8 -4 17 -3 19 2 6 9 36 11 36 2z m-193 -7
c-3 -3 -12 -4 -19 -1 -8 3 -5 6 6 6 11 1 17 -2 13 -5z m213 -34 c0 -5 -4 -10
-10 -10 -5 0 -10 5 -10 10 0 6 5 10 10 10 6 0 10 -4 10 -10z m-183 -6 c-3 -3
-12 -4 -19 -1 -8 3 -5 6 6 6 11 1 17 -2 13 -5z m70 0 c-3 -3 -12 -4 -19 -1 -8
3 -5 6 6 6 11 1 17 -2 13 -5z m-80 -40 c-3 -3 -12 -4 -19 -1 -8 3 -5 6 6 6 11
1 17 -2 13 -5z m260 0 c-3 -3 -12 -4 -19 -1 -8 3 -5 6 6 6 11 1 17 -2 13 -5z
m-1583 -425 c3 -17 6 -67 6 -110 0 -43 4 -98 9 -121 12 -52 30 -149 38 -203 4
-22 7 -70 7 -107 1 -38 5 -68 10 -68 4 0 5 -46 1 -102 -4 -57 -8 -111 -8 -120
-1 -22 -30 -23 -89 -4 -39 12 -79 23 -228 58 -49 12 -73 26 -65 38 3 5 1 11
-5 15 -21 13 -8 34 66 106 144 139 164 162 174 198 6 20 15 104 20 186 10 147
18 228 25 253 8 24 33 12 39 -19z m581 -1029 c3 -5 2 -10 -4 -10 -5 0 -13 5
-16 10 -3 6 -2 10 4 10 5 0 13 -4 16 -10z"/>
<path d="M5988 10631 c11 -6 10 -10 -4 -15 -9 -3 -14 -9 -11 -13 8 -7 37 15
37 28 0 5 -8 9 -17 9 -14 0 -15 -2 -5 -9z"/>
<path d="M5945 10570 c-28 -7 -27 -8 13 -9 27 -1 41 3 37 9 -7 11 -7 11 -50 0z"/>
<path d="M5790 10510 c0 -5 5 -10 11 -10 5 0 7 5 4 10 -3 6 -8 10 -11 10 -2 0
-4 -4 -4 -10z"/>
<path d="M5870 10490 c0 -3 13 -10 29 -16 25 -10 28 -9 24 6 -3 11 -14 17 -29
16 -13 0 -24 -3 -24 -6z"/>
<path d="M5935 10490 c3 -5 8 -10 11 -10 2 0 4 5 4 10 0 6 -5 10 -11 10 -5 0
-7 -4 -4 -10z"/>
<path d="M5875 10460 c3 -5 8 -10 11 -10 2 0 4 5 4 10 0 6 -5 10 -11 10 -5 0
-7 -4 -4 -10z"/>
<path d="M5870 10400 c0 -5 5 -10 11 -10 5 0 7 5 4 10 -3 6 -8 10 -11 10 -2 0
-4 -4 -4 -10z"/>
<path d="M5763 10370 c20 -25 31 -29 44 -18 21 17 15 26 -22 30 -29 3 -32 2
-22 -12z"/>
<path d="M5824 10343 c5 -9 0 -13 -13 -13 -12 0 -21 -5 -21 -11 0 -7 10 -9 27
-5 17 5 29 3 34 -6 5 -7 9 -8 9 -2 0 6 -10 19 -22 30 -12 10 -18 13 -14 7z"/>
<path d="M5758 10323 c7 -3 16 -2 19 1 4 3 -2 6 -13 5 -11 0 -14 -3 -6 -6z"/>
<path d="M5870 10290 c0 -5 4 -10 9 -10 6 0 13 5 16 10 3 6 -1 10 -9 10 -9 0
-16 -4 -16 -10z"/>
<path d="M5923 10250 c4 -18 37 -27 37 -10 0 6 -5 8 -11 4 -6 -3 -16 0 -21 7
-8 12 -9 11 -5 -1z"/>
<path d="M5717 10244 c-8 -8 1 -24 14 -24 5 0 9 7 9 15 0 15 -12 20 -23 9z"/>
<path d="M5609 10146 c8 -9 25 -16 39 -16 32 0 18 15 -22 24 -26 6 -28 5 -17
-8z"/>
<path d="M5718 10142 c-52 -5 -48 -22 5 -23 23 -1 46 -1 50 0 4 1 17 -7 28
-18 12 -11 29 -21 40 -24 18 -5 18 -4 -1 24 -12 15 -24 30 -28 32 -15 9 -59
13 -94 9z"/>
<path d="M5577 10133 c-12 -11 -8 -23 8 -23 8 0 15 7 15 15 0 16 -12 20 -23 8z"/>
<path d="M5890 10136 c0 -2 7 -7 16 -10 8 -3 12 -2 9 4 -6 10 -25 14 -25 6z"/>
<path d="M5970 10129 c0 -4 -10 -5 -22 -2 -13 3 -20 3 -16 -1 8 -10 98 -14
103 -5 3 4 -11 9 -30 11 -19 2 -35 1 -35 -3z"/>
<path d="M5873 10113 c14 -16 15 -22 5 -26 -7 -3 -1 -6 15 -6 35 -1 34 3 -5
30 -31 21 -32 21 -15 2z"/>
<path d="M5545 10090 c3 -5 8 -10 11 -10 2 0 4 5 4 10 0 6 -5 10 -11 10 -5 0
-7 -4 -4 -10z"/>
<path d="M5625 10090 c3 -5 8 -10 11 -10 2 0 4 5 4 10 0 6 -5 10 -11 10 -5 0
-7 -4 -4 -10z"/>
<path d="M5933 10086 c4 -10 -2 -16 -16 -19 -13 -3 -7 -5 15 -6 37 -1 37 -1
21 19 -21 24 -27 26 -20 6z"/>
<path d="M5585 10070 c4 -6 11 -8 16 -5 14 9 11 15 -7 15 -8 0 -12 -5 -9 -10z"/>
<path d="M5826 10062 c-3 -5 1 -15 9 -22 16 -14 20 -3 6 19 -5 8 -11 9 -15 3z"/>
<path d="M5545 10040 c3 -5 11 -10 16 -10 6 0 7 5 4 10 -3 6 -11 10 -16 10 -6
0 -7 -4 -4 -10z"/>
<path d="M5658 10043 c7 -3 16 -2 19 1 4 3 -2 6 -13 5 -11 0 -14 -3 -6 -6z"/>
<path d="M5698 10043 c7 -3 16 -2 19 1 4 3 -2 6 -13 5 -11 0 -14 -3 -6 -6z"/>
<path d="M5948 10043 c7 -3 16 -2 19 1 4 3 -2 6 -13 5 -11 0 -14 -3 -6 -6z"/>
<path d="M5590 10029 c0 -5 5 -7 10 -4 6 3 10 8 10 11 0 2 -4 4 -10 4 -5 0
-10 -5 -10 -11z"/>
<path d="M5922 10007 c-7 -9 -8 -17 -1 -27 8 -12 12 -12 16 -2 2 6 8 10 13 7
4 -2 16 5 26 17 19 21 19 21 -3 9 -27 -14 -55 -15 -33 -1 8 5 10 10 4 10 -6 0
-16 -6 -22 -13z"/>
<path d="M5560 10000 c0 -6 7 -10 15 -10 8 0 15 2 15 4 0 2 -7 6 -15 10 -8 3
-15 1 -15 -4z"/>
<path d="M5620 9989 c0 -6 -6 -7 -12 -4 -7 3 -2 -2 12 -12 14 -10 35 -29 47
-42 13 -13 23 -19 23 -13 0 6 -10 19 -23 29 -13 10 -22 23 -20 29 2 7 -3 14
-12 17 -8 4 -15 2 -15 -4z"/>
<path d="M5680 9996 c0 -2 9 -6 20 -9 11 -3 20 -1 20 4 0 5 -9 9 -20 9 -11 0
-20 -2 -20 -4z"/>
<path d="M5820 9978 c0 -4 5 -10 10 -13 6 -3 10 -2 10 4 0 5 10 12 23 14 13 3
9 4 -10 4 -18 -1 -33 -5 -33 -9z"/>
<path d="M5486 9968 c7 -11 35 -10 54 2 11 7 5 9 -22 8 -21 -1 -35 -5 -32 -10z"/>
<path d="M5790 9965 c7 -9 15 -13 17 -11 7 7 -7 26 -19 26 -6 0 -6 -6 2 -15z"/>
<path d="M5585 9940 c-28 -7 -28 -8 -5 -9 14 0 32 4 40 9 17 11 8 11 -35 0z"/>
<path d="M5787 9939 c7 -7 15 -10 18 -7 3 3 -2 9 -12 12 -14 6 -15 5 -6 -5z"/>
<path d="M5830 9935 c0 -13 31 -36 41 -33 7 2 0 12 -15 21 -14 10 -26 15 -26
12z"/>
<path d="M5480 9921 c0 -5 -10 -7 -22 -4 -22 4 -23 4 -4 -11 14 -11 22 -13 27
-5 4 6 13 15 20 20 11 7 10 9 -3 9 -10 0 -18 -4 -18 -9z"/>
<path d="M5560 9910 c0 -6 7 -10 15 -10 8 0 15 2 15 4 0 2 -7 6 -15 10 -8 3
-15 1 -15 -4z"/>
<path d="M5715 9913 c-16 -4 -12 -9 20 -24 47 -23 62 -24 45 -4 -10 12 -10 15
1 16 8 0 5 4 -6 9 -22 10 -31 10 -60 3z"/>
<path d="M5800 9900 c0 -5 5 -10 11 -10 5 0 7 5 4 10 -3 6 -8 10 -11 10 -2 0
-4 -4 -4 -10z"/>
<path d="M5519 9863 c12 -18 24 -33 27 -33 9 0 -15 37 -33 51 -12 10 -11 5 6
-18z"/>
<path d="M5817 9870 c-10 -10 -14 -21 -9 -24 6 -3 13 1 16 10 4 10 12 14 22
10 14 -5 15 -4 4 9 -7 8 -13 15 -14 14 0 0 -9 -8 -19 -19z"/>
<path d="M5580 9870 c8 -5 22 -9 30 -9 10 0 8 3 -5 9 -27 12 -43 12 -25 0z"/>
<path d="M5700 9871 c0 -5 7 -11 15 -15 8 -3 15 -1 15 3 0 5 -7 11 -15 15 -8
3 -15 1 -15 -3z"/>
<path d="M5650 9852 c0 -11 7 -23 16 -26 11 -4 15 0 12 16 -4 28 -28 36 -28
10z"/>
<path d="M5370 9820 c0 -11 5 -20 10 -20 6 0 10 -6 10 -13 0 -7 10 -17 23 -22
13 -6 21 -17 19 -28 -2 -11 4 -17 17 -17 16 0 20 6 19 24 -2 17 -15 31 -45 47
-25 14 -41 29 -38 36 2 7 0 13 -5 13 -6 0 -10 -9 -10 -20z"/>
<path d="M5495 9810 c-3 -6 1 -7 9 -4 18 7 21 14 7 14 -6 0 -13 -4 -16 -10z"/>
<path d="M5563 9809 c10 -6 21 -8 24 -5 4 3 12 1 20 -6 11 -8 12 -7 7 6 -4 10
-17 16 -38 16 -27 -1 -28 -2 -13 -11z"/>
<path d="M5695 9810 c-4 -6 12 -9 44 -8 27 1 47 6 45 10 -7 12 -82 10 -89 -2z"/>
<path d="M5798 9768 c5 -5 16 -8 23 -6 8 3 3 7 -10 11 -17 4 -21 3 -13 -5z"/>
<path d="M5765 9760 c3 -5 8 -10 11 -10 2 0 4 5 4 10 0 6 -5 10 -11 10 -5 0
-7 -4 -4 -10z"/>
<path d="M5748 9733 c6 -2 12 -11 12 -19 0 -8 5 -14 10 -14 16 0 11 27 -6 34
-9 3 -19 6 -22 5 -4 0 -1 -3 6 -6z"/>
<path d="M5495 9710 c-3 -5 1 -10 9 -10 9 0 16 5 16 10 0 6 -4 10 -9 10 -6 0
-13 -4 -16 -10z"/>
<path d="M5295 9680 c3 -5 8 -10 11 -10 2 0 4 5 4 10 0 6 -5 10 -11 10 -5 0
-7 -4 -4 -10z"/>
<path d="M5520 9682 c0 -2 15 -9 33 -16 21 -9 50 -11 87 -6 36 5 44 8 23 9
-18 0 -33 6 -33 11 0 7 -6 7 -19 1 -10 -6 -22 -7 -26 -3 -6 7 -65 10 -65 4z"/>
<path d="M5437 9668 c-7 -5 -1 -8 13 -8 14 0 31 4 39 9 10 7 6 9 -13 8 -15 -1
-33 -5 -39 -9z"/>
<path d="M5455 9640 c-3 -5 3 -10 14 -10 12 0 21 -7 21 -15 0 -16 9 -19 34 -9
23 9 20 24 -5 24 -11 0 -29 5 -39 10 -13 7 -21 7 -25 0z"/>
<path d="M5631 9613 c-1 -7 -8 -13 -18 -13 -28 0 -5 -13 27 -15 17 -2 33 1 36
6 3 5 -4 9 -15 9 -10 0 -22 6 -24 13 -4 10 -6 10 -6 0z"/>
<path d="M5655 9010 c-3 -5 -1 -10 4 -10 6 0 11 5 11 10 0 6 -2 10 -4 10 -3 0
-8 -4 -11 -10z"/>
<path d="M5359 8980 c-15 -23 -18 -24 -41 -11 -31 16 -71 0 -62 -24 4 -10 0
-15 -12 -15 -13 0 -15 -3 -7 -11 9 -9 8 -15 -3 -26 -32 -32 2 -52 44 -26 15 9
28 17 29 17 1 1 -2 20 -6 43 l-8 41 29 -21 c26 -19 30 -20 44 -5 9 8 14 26 12
39 l-3 23 -16 -24z"/>
<path d="M5400 8990 c-13 -9 -13 -10 0 -10 13 0 13 -1 0 -10 -11 -7 -11 -10
-2 -10 7 0 11 -4 8 -9 -4 -5 3 -7 14 -4 15 4 18 9 10 17 -6 9 -6 16 2 24 15
15 -10 17 -32 2z"/>
<path d="M5510 8986 c0 -21 16 -28 29 -12 9 11 8 15 -5 20 -22 8 -24 8 -24 -8z"/>
<path d="M5398 8813 c7 -3 16 -2 19 1 4 3 -2 6 -13 5 -11 0 -14 -3 -6 -6z"/>
<path d="M5314 8775 c-10 -8 -14 -15 -8 -15 6 0 17 7 24 15 16 19 9 19 -16 0z"/>
<path d="M5770 8766 c0 -9 40 -13 46 -5 3 5 -6 9 -20 9 -14 0 -26 -2 -26 -4z"/>
<path d="M104 6905 c8 -8 20 -15 27 -15 9 0 8 4 -1 15 -7 8 -19 15 -27 15 -12
0 -12 -2 1 -15z"/>
<path d="M4118 2833 c7 -3 16 -2 19 1 4 3 -2 6 -13 5 -11 0 -14 -3 -6 -6z"/>
<path d="M3326 2778 c8 -13 64 -19 81 -9 14 8 15 11 3 12 -37 5 -88 3 -84 -3z"/>
<path d="M4135 2690 c3 -5 8 -10 11 -10 2 0 4 5 4 10 0 6 -5 10 -11 10 -5 0
-7 -4 -4 -10z"/>
<path d="M4068 2643 c7 -3 16 -2 19 1 4 3 -2 6 -13 5 -11 0 -14 -3 -6 -6z"/>
<path d="M2020 2450 c0 -5 5 -10 11 -10 5 0 7 5 4 10 -3 6 -8 10 -11 10 -2 0
-4 -4 -4 -10z"/>
<path d="M1095 2283 c4 -10 10 -26 12 -35 6 -19 33 -25 33 -7 0 18 -19 46 -36
53 -12 5 -15 2 -9 -11z"/>
<path d="M1120 2090 c0 -5 5 -10 11 -10 5 0 7 5 4 10 -3 6 -8 10 -11 10 -2 0
-4 -4 -4 -10z"/>
<path d="M1468 1303 c-3 -12 -1 -26 5 -32 6 -6 8 -11 4 -11 -5 0 -19 12 -32
28 -29 33 -31 23 -7 -43 10 -28 17 -56 14 -63 -5 -15 -1 -15 33 -2 22 8 24 13
15 30 -6 11 -8 25 -5 31 4 5 2 15 -3 22 -6 7 -12 23 -14 37 -3 24 -4 24 -10 3z"/>
<path d="M1380 1011 c0 -5 5 -13 10 -16 6 -3 10 -2 10 4 0 5 -4 13 -10 16 -5
3 -10 2 -10 -4z"/>
<path d="M1016 773 c-6 -14 -5 -15 5 -6 7 7 10 15 7 18 -3 3 -9 -2 -12 -12z"/>
<path d="M1103 766 c11 -8 25 -12 33 -9 18 7 16 9 -21 17 -28 6 -29 5 -12 -8z"/>
<path d="M1200 720 c20 -13 33 -13 25 0 -3 6 -14 10 -23 10 -15 0 -15 -2 -2
-10z"/>
<path d="M4135 2490 c-4 -6 3 -10 14 -10 25 0 27 6 6 13 -8 4 -17 2 -20 -3z"/>
<path d="M4000 2413 c0 -10 4 -14 8 -8 4 6 11 13 16 18 5 4 2 7 -7 7 -10 0
-17 -8 -17 -17z"/>
<path d="M4015 2390 c-3 -5 -1 -10 4 -10 6 0 11 5 11 10 0 6 -2 10 -4 10 -3 0
-8 -4 -11 -10z"/>
<path d="M4080 2355 c0 -8 7 -15 15 -15 8 0 18 0 22 -1 4 0 9 5 12 13 2 7 0
10 -4 6 -4 -4 -16 -3 -26 3 -15 7 -19 6 -19 -6z"/>
<path d="M4007 2223 c3 -7 9 -13 13 -13 4 0 10 6 13 13 3 7 -3 13 -13 13 -10
0 -16 -6 -13 -13z"/>
<path d="M3472 2193 c-9 -3 -4 -10 13 -19 33 -17 56 -7 30 13 -20 14 -23 14
-43 6z"/>
<path d="M3348 2153 c7 -3 16 -2 19 1 4 3 -2 6 -13 5 -11 0 -14 -3 -6 -6z"/>
<path d="M3196 2131 c-3 -5 5 -11 18 -13 17 -4 23 -1 19 9 -6 15 -29 18 -37 4z"/>
<path d="M3166 2096 c10 -8 21 -12 24 -10 5 6 -21 24 -34 24 -6 0 -1 -6 10
-14z"/>
<path d="M3270 2095 c0 -8 4 -15 10 -15 5 0 7 7 4 15 -4 8 -8 15 -10 15 -2 0
-4 -7 -4 -15z"/>
<path d="M3130 2081 c0 -11 4 -21 9 -21 18 0 21 18 6 30 -13 10 -15 9 -15 -9z"/>
<path d="M3213 2093 c9 -2 17 -9 17 -14 0 -6 5 -7 10 -4 19 12 10 25 -17 24
-17 -1 -21 -3 -10 -6z"/>
<path d="M3369 2078 c-12 -8 -12 -9 1 -5 8 2 23 -3 33 -11 16 -14 17 -14 12 0
-9 22 -28 29 -46 16z"/>
<path d="M3275 2050 c4 -6 11 -8 16 -5 14 9 11 15 -7 15 -8 0 -12 -5 -9 -10z"/>
<path d="M3438 2053 c7 -3 16 -2 19 1 4 3 -2 6 -13 5 -11 0 -14 -3 -6 -6z"/>
<path d="M3580 2310 c0 -5 5 -10 10 -10 6 0 10 5 10 10 0 6 -4 10 -10 10 -5 0
-10 -4 -10 -10z"/>
<path d="M1317 10628 c-4 -14 -2 -18 10 -14 8 3 26 6 39 6 38 0 29 25 -10 27
-26 1 -35 -3 -39 -19z"/>
<path d="M1217 10593 c-12 -12 -7 -22 8 -17 8 4 15 10 15 15 0 11 -14 12 -23
2z"/>
<path d="M1220 10546 c0 -8 7 -17 16 -20 11 -4 15 -2 11 8 -4 9 1 17 11 19 10
3 5 5 -10 6 -18 1 -28 -4 -28 -13z"/>
<path d="M1022 10534 c-7 -8 -8 -14 -3 -14 10 0 25 19 20 25 -2 1 -10 -3 -17
-11z"/>
<path d="M2040 10390 c0 -5 4 -10 9 -10 6 0 13 5 16 10 3 6 -1 10 -9 10 -9 0
-16 -4 -16 -10z"/>
<path d="M150 10343 c1 -25 2 -26 14 -10 7 9 21 17 30 17 9 0 16 5 16 10 0 6
-13 10 -30 10 -26 0 -30 -4 -30 -27z"/>
<path d="M110 10350 c0 -5 4 -10 9 -10 6 0 13 5 16 10 3 6 -1 10 -9 10 -9 0
-16 -4 -16 -10z"/>
<path d="M40 10343 c-40 -7 -48 -23 -12 -23 25 0 30 -3 26 -17 -4 -12 1 -9 15
7 33 40 30 43 -29 33z"/>
<path d="M2154 10238 c-5 -8 -1 -9 12 -4 12 4 7 -3 -11 -18 l-30 -25 34 9 c32
9 50 24 51 43 0 12 -48 8 -56 -5z"/>
<path d="M165 10009 c-4 -6 -5 -13 -2 -16 7 -7 27 6 27 18 0 12 -17 12 -25 -2z"/>
<path d="M194 9948 c-3 -4 0 -8 7 -8 7 0 10 -3 6 -6 -12 -12 24 -36 55 -38 39
-1 48 21 13 34 -14 5 -23 15 -20 20 4 7 -6 10 -25 8 -17 -1 -34 -6 -36 -10z"/>
<path d="M2452 9949 c2 -7 10 -15 17 -17 8 -3 12 1 9 9 -2 7 -10 15 -17 17 -8
3 -12 -1 -9 -9z"/>
<path d="M636 9862 c-9 -15 7 -23 77 -33 67 -10 150 -25 324 -60 29 -6 67 -9
85 -7 22 2 32 -1 30 -9 -1 -7 6 -13 15 -14 10 0 46 -2 79 -5 68 -6 92 8 44 25
-17 5 -30 15 -30 20 0 7 -23 9 -59 7 -43 -2 -61 1 -65 10 -3 7 -22 16 -43 20
-21 4 -42 9 -48 13 -37 23 -397 52 -409 33z"/>
<path d="M150 9840 c0 -5 5 -10 10 -10 6 0 10 5 10 10 0 6 -4 10 -10 10 -5 0
-10 -4 -10 -10z"/>
<path d="M1378 9843 c7 -3 16 -2 19 1 4 3 -2 6 -13 5 -11 0 -14 -3 -6 -6z"/>
<path d="M1418 9843 c7 -3 16 -2 19 1 4 3 -2 6 -13 5 -11 0 -14 -3 -6 -6z"/>
<path d="M1480 9780 c0 -7 6 -10 14 -7 8 3 16 2 18 -2 2 -5 21 -11 43 -15 37
-6 39 -5 21 9 -11 8 -27 15 -35 15 -9 0 -26 3 -38 6 -15 4 -23 2 -23 -6z"/>
<path d="M1468 9743 c6 -2 18 -2 25 0 6 3 1 5 -13 5 -14 0 -19 -2 -12 -5z"/>
<path d="M1386 9663 c-11 -11 -6 -21 14 -26 11 -3 20 -3 20 0 0 10 -28 32 -34
26z"/>
<path d="M1539 9623 c-1 -5 -1 -11 0 -15 0 -5 -7 -8 -16 -8 -31 0 7 -28 48
-35 32 -6 36 -4 34 14 -2 31 -62 70 -66 44z"/>
<path d="M1470 9611 c0 -17 18 -21 24 -6 3 9 0 15 -9 15 -8 0 -15 -4 -15 -9z"/>
<path d="M1654 9583 c4 -8 1 -13 -8 -13 -26 0 -18 -19 9 -26 37 -9 43 3 16 29
-13 12 -21 16 -17 10z"/>
<path d="M2105 9560 c-3 -6 1 -7 9 -4 18 7 21 14 7 14 -6 0 -13 -4 -16 -10z"/>
<path d="M2190 9538 c0 -15 18 -17 36 -3 18 14 17 14 -8 13 -16 -1 -28 -6 -28
-10z"/>
<path d="M1823 9514 c13 -4 15 -9 7 -19 -14 -17 0 -50 23 -51 19 -2 24 22 5
28 -7 3 -13 13 -13 24 0 11 -8 19 -20 21 -17 1 -17 1 -2 -3z"/>
<path d="M3970 9499 c0 -5 5 -7 10 -4 6 3 10 8 10 11 0 2 -4 4 -10 4 -5 0 -10
-5 -10 -11z"/>
<path d="M4290 9480 c-12 -7 -12 -12 -3 -21 15 -15 26 -7 21 15 -2 11 -7 13
-18 6z"/>
<path d="M1584 9435 c-16 -25 -34 -81 -34 -105 2 -64 119 -77 173 -19 18 19
18 22 3 54 -9 19 -16 37 -15 42 1 4 -2 18 -6 30 -6 19 -14 22 -56 21 -41 0
-53 -4 -65 -23z"/>
<path d="M4111 9393 c0 -12 -5 -25 -11 -28 -5 -3 -10 -14 -10 -23 0 -15 1 -15
16 0 10 9 14 26 11 44 -3 21 -4 23 -6 7z"/>
<path d="M1985 9390 c-8 -12 20 -24 35 -15 6 3 8 11 5 16 -8 12 -32 12 -40 -1z"/>
<path d="M2570 9339 c0 -11 5 -17 10 -14 6 3 10 13 10 21 0 8 -4 14 -10 14 -5
0 -10 -9 -10 -21z"/>
<path d="M1077 9303 c-21 -5 -18 -28 4 -28 8 0 19 -4 26 -8 7 -4 24 -5 38 -1
18 4 30 2 38 -10 7 -9 25 -18 40 -20 15 -1 30 -6 34 -9 9 -10 63 -9 63 1 0 4
-20 14 -45 21 -25 7 -45 17 -45 22 0 5 -15 9 -34 9 -18 0 -39 7 -46 15 -12 15
-37 17 -73 8z"/>
<path d="M3745 9187 c-22 -24 -23 -33 -7 -34 11 -1 17 7 18 23 2 28 2 27 -11
11z"/>
<path d="M1150 9170 c0 -5 5 -10 12 -10 6 0 4 -7 -5 -18 -10 -10 -17 -24 -17
-32 0 -10 -3 -10 -15 0 -8 6 -19 9 -25 5 -11 -7 -14 -26 -2 -23 10 3 52 -25
52 -35 0 -5 -7 -7 -15 -3 -21 8 -19 -11 3 -24 16 -11 16 -11 0 -6 -10 3 -18 1
-18 -5 0 -6 -12 -9 -27 -8 -42 5 -114 -35 -143 -78 -20 -31 -25 -53 -28 -121
-4 -81 -4 -82 27 -111 58 -54 156 -48 229 15 31 26 41 44 49 83 7 34 7 53 -1
61 -7 7 -5 10 8 10 19 0 46 23 46 39 0 6 11 13 25 17 14 3 22 10 19 15 -3 5
-13 5 -24 -1 -17 -9 -22 -6 -33 22 -11 27 -12 34 -1 41 7 4 11 14 8 22 -3 7 0
22 6 32 10 16 11 16 6 1 -3 -10 -2 -18 3 -18 5 0 11 9 14 20 3 13 0 20 -10 20
-8 0 -17 9 -20 20 -4 14 -14 20 -34 20 -16 0 -29 5 -29 10 0 6 9 10 20 10 11
0 20 4 20 9 0 13 -25 20 -52 14 -18 -4 -20 -3 -8 6 12 9 10 11 -12 11 -16 0
-28 -4 -28 -10z m45 -30 c-3 -5 -11 -10 -16 -10 -6 0 -7 5 -4 10 3 6 11 10 16
10 6 0 7 -4 4 -10z"/>
<path d="M1310 9103 c0 -7 9 -13 20 -13 11 0 20 -4 20 -9 0 -5 11 -8 25 -8 14
0 28 3 31 8 3 5 -4 9 -15 9 -12 0 -21 4 -21 9 0 5 -13 11 -30 13 -20 3 -30 0
-30 -9z"/>
<path d="M4235 9064 c9 -13 -29 -64 -45 -59 -33 10 -40 -10 -14 -43 26 -33 46
-42 43 -19 -1 6 -1 19 0 27 1 13 3 13 10 1 8 -12 14 -13 35 -3 14 6 26 17 26
24 0 20 -18 43 -32 43 -7 0 -13 5 -13 12 0 6 -3 14 -7 17 -5 3 -6 3 -3 0z"/>
<path d="M1356 9052 c-3 -5 1 -9 9 -9 8 0 12 4 9 9 -3 4 -7 8 -9 8 -2 0 -6 -4
-9 -8z"/>
<path d="M0 9018 c0 -18 24 -23 54 -12 25 9 19 24 -9 24 -14 0 -25 -6 -25 -12
0 -9 -4 -8 -10 2 -8 13 -10 12 -10 -2z"/>
<path d="M148 9013 c7 -3 16 -2 19 1 4 3 -2 6 -13 5 -11 0 -14 -3 -6 -6z"/>
<path d="M1520 9005 c7 -8 19 -15 26 -15 20 0 18 -10 -13 -55 -21 -30 -27 -54
-30 -109 -5 -89 5 -117 58 -156 114 -82 269 7 269 154 0 35 -15 63 -59 107
-28 28 -52 40 -105 53 -52 13 -71 14 -82 5 -11 -9 -14 -7 -14 10 0 17 -6 21
-31 21 -27 0 -30 -2 -19 -15z"/>
<path d="M4300 8961 c0 -18 -4 -22 -20 -18 -11 3 -20 4 -20 3 0 0 4 -16 9 -34
6 -20 6 -32 0 -32 -5 0 -9 -4 -9 -10 0 -15 22 -12 59 6 46 23 49 41 12 77 -30
31 -31 31 -31 8z"/>
<path d="M1326 8893 c24 -18 45 -16 38 2 -4 8 -17 14 -31 13 -22 -2 -23 -4 -7
-15z"/>
<path d="M1383 8889 c1 -11 7 -19 15 -19 7 0 11 4 8 9 -4 5 -1 11 6 13 7 3 3
7 -9 10 -17 4 -21 2 -20 -13z"/>
<path d="M1357 8854 c-14 -14 -7 -35 11 -32 9 2 17 10 17 17 0 16 -18 25 -28
15z"/>
<path d="M786 8738 c-43 -61 11 -115 72 -72 27 18 29 55 4 77 -26 23 -58 21
-76 -5z"/>
<path d="M1663 8549 c-26 -10 -51 -85 -35 -109 13 -22 78 -25 108 -5 21 14 24
21 19 48 -12 56 -49 82 -92 66z"/>
<path d="M6380 8213 c-79 -10 -88 -14 -100 -42 -9 -23 -9 -33 2 -50 7 -12 17
-21 21 -21 5 0 27 -19 50 -42 l42 -42 3 52 c5 93 -1 148 -18 145z"/>
<path d="M3029 8002 c7 -5 11 -14 8 -19 -4 -6 4 -8 19 -5 28 5 22 16 -16 27
-17 4 -21 3 -11 -3z"/>
<path d="M5968 7963 c7 -3 16 -2 19 1 4 3 -2 6 -13 5 -11 0 -14 -3 -6 -6z"/>
<path d="M2730 7770 c0 -5 5 -10 10 -10 6 0 10 5 10 10 0 6 -4 10 -10 10 -5 0
-10 -4 -10 -10z"/>
<path d="M4257 7704 c-41 -56 1 -126 62 -103 46 18 55 59 20 103 -26 33 -59
33 -82 0z"/>
<path d="M3043 7681 c1 -12 7 -21 14 -21 17 0 16 15 -1 30 -12 9 -15 8 -13 -9z"/>
<path d="M2968 7493 c6 -2 18 -2 25 0 6 3 1 5 -13 5 -14 0 -19 -2 -12 -5z"/>
<path d="M2904 7340 c0 -11 3 -20 7 -20 10 0 19 27 12 34 -12 11 -19 6 -19
-14z"/>
<path d="M1215 7120 c3 -5 8 -10 11 -10 2 0 4 5 4 10 0 6 -5 10 -11 10 -5 0
-7 -4 -4 -10z"/>
<path d="M2710 6949 c0 -15 18 -19 23 -6 3 8 -1 14 -9 14 -8 0 -14 -4 -14 -8z"/>
<path d="M2750 6940 c0 -5 5 -10 11 -10 5 0 7 5 4 10 -3 6 -8 10 -11 10 -2 0
-4 -4 -4 -10z"/>
<path d="M2596 6547 c4 -12 11 -24 16 -26 6 -2 4 -7 -3 -12 -11 -6 -10 -11 3
-26 8 -10 18 -25 22 -33 5 -12 0 43 -8 99 -2 8 -10 15 -20 17 -13 2 -15 -2
-10 -19z"/>
<path d="M2710 6530 c0 -5 5 -10 11 -10 5 0 7 5 4 10 -3 6 -8 10 -11 10 -2 0
-4 -4 -4 -10z"/>
<path d="M2650 6490 c0 -5 5 -10 11 -10 5 0 7 5 4 10 -3 6 -8 10 -11 10 -2 0
-4 -4 -4 -10z"/>
<path d="M2660 6436 c0 -8 7 -16 15 -20 17 -6 18 -4 9 18 -8 20 -24 21 -24 2z"/>
<path d="M105 6230 c-3 -5 -1 -10 4 -10 6 0 11 5 11 10 0 6 -2 10 -4 10 -3 0
-8 -4 -11 -10z"/>
<path d="M380 6232 c0 -12 19 -26 26 -19 2 2 -2 10 -11 17 -9 8 -15 8 -15 2z"/>
<path d="M1796 6225 c4 -8 10 -12 15 -9 11 6 2 24 -11 24 -5 0 -7 -7 -4 -15z"/>
<path d="M316 6105 c4 -8 11 -15 16 -15 6 0 5 6 -2 15 -7 8 -14 15 -16 15 -2
0 -1 -7 2 -15z"/>
<path d="M1126 5921 c-3 -5 1 -11 9 -15 8 -3 15 -1 15 4 0 13 -18 22 -24 11z"/>
<path d="M610 5826 c0 -2 7 -7 16 -10 8 -3 12 -2 9 4 -6 10 -25 14 -25 6z"/>
<path d="M1765 5810 c3 -5 13 -10 21 -10 8 0 12 5 9 10 -3 6 -13 10 -21 10 -8
0 -12 -4 -9 -10z"/>
<path d="M1310 5733 c0 -5 5 -15 10 -23 8 -12 10 -11 10 8 0 12 -4 22 -10 22
-5 0 -10 -3 -10 -7z"/>
<path d="M968 5723 c7 -3 16 -2 19 1 4 3 -2 6 -13 5 -11 0 -14 -3 -6 -6z"/>
<path d="M1360 5700 c0 -5 5 -10 11 -10 5 0 7 5 4 10 -3 6 -8 10 -11 10 -2 0
-4 -4 -4 -10z"/>
<path d="M1650 5690 c0 -5 5 -10 11 -10 5 0 7 5 4 10 -3 6 -8 10 -11 10 -2 0
-4 -4 -4 -10z"/>
<path d="M1455 5450 c3 -5 14 -10 23 -10 15 0 15 2 2 10 -20 13 -33 13 -25 0z"/>
<path d="M745 5440 c3 -5 14 -10 23 -10 15 0 15 2 2 10 -20 13 -33 13 -25 0z"/>
<path d="M355 5260 c3 -5 10 -10 16 -10 5 0 9 5 9 10 0 6 -7 10 -16 10 -8 0
-12 -4 -9 -10z"/>
<path d="M230 5241 c0 -6 5 -13 10 -16 6 -3 10 1 10 9 0 9 -4 16 -10 16 -5 0
-10 -4 -10 -9z"/>
<path d="M187 5193 c-3 -5 0 -19 8 -29 15 -20 18 -11 6 20 -4 11 -10 15 -14 9z"/>
<path d="M228 5193 c7 -3 16 -2 19 1 4 3 -2 6 -13 5 -11 0 -14 -3 -6 -6z"/>
<path d="M268 5193 c7 -3 16 -2 19 1 4 3 -2 6 -13 5 -11 0 -14 -3 -6 -6z"/>
<path d="M153 5142 c-27 -32 -28 -40 -6 -67 15 -19 15 -18 10 15 -3 19 -3 29
0 23 2 -7 11 -13 19 -13 10 0 12 8 7 33 -3 17 -6 33 -7 34 -1 1 -11 -11 -23
-25z"/>
<path d="M280 5159 c0 -4 -15 -5 -32 -3 -32 4 -32 4 -13 -11 12 -10 21 -12 23
-5 2 5 8 8 13 4 12 -7 49 5 49 16 0 5 -9 8 -20 7 -11 -1 -20 -4 -20 -8z"/>
<path d="M280 5121 c0 -8 19 -37 21 -31 0 3 2 12 4 21 1 9 -4 16 -11 16 -8 0
-14 -3 -14 -6z"/>
<path d="M77 5047 c-31 -46 -35 -58 -27 -83 7 -25 8 -26 9 -6 1 14 5 21 12 16
7 -4 9 0 5 14 -4 12 -1 26 9 35 8 9 15 21 15 28 0 8 7 6 19 -5 26 -23 32 -7
11 27 l-17 28 -36 -54z"/>
<path d="M752 5048 c5 -15 28 -23 28 -10 0 5 -7 13 -16 16 -10 4 -14 1 -12 -6z"/>
<path d="M450 5025 c0 -8 4 -15 10 -15 5 0 7 7 4 15 -4 8 -8 15 -10 15 -2 0
-4 -7 -4 -15z"/>
<path d="M150 4989 c0 -11 4 -18 10 -14 5 3 7 12 3 20 -7 21 -13 19 -13 -6z"/>
<path d="M12 4950 c-20 -32 -15 -48 14 -44 14 1 29 6 32 10 4 4 -1 4 -10 1
-15 -5 -16 -1 -11 23 6 34 -6 39 -25 10z"/>
<path d="M697 4020 c3 -11 9 -17 14 -15 10 7 1 35 -11 35 -5 0 -6 -9 -3 -20z"/>
<path d="M728 3993 c7 -3 16 -2 19 1 4 3 -2 6 -13 5 -11 0 -14 -3 -6 -6z"/>
<path d="M725 3960 c3 -5 8 -10 11 -10 2 0 4 5 4 10 0 6 -5 10 -11 10 -5 0 -7
-4 -4 -10z"/>
<path d="M720 3893 c0 -17 27 -46 33 -36 4 6 -2 18 -13 28 -11 10 -20 14 -20
8z"/>
<path d="M723 3773 c-9 -3 -10 -10 -3 -23 6 -10 9 -27 8 -37 -3 -38 3 -53 20
-52 9 0 12 3 6 5 -6 3 -8 25 -4 59 6 54 3 60 -27 48z"/>
<path d="M832 3709 c2 -7 10 -15 17 -17 8 -3 12 1 9 9 -2 7 -10 15 -17 17 -8
3 -12 -1 -9 -9z"/>
<path d="M1480 3700 c0 -5 5 -10 11 -10 5 0 7 5 4 10 -3 6 -8 10 -11 10 -2 0
-4 -4 -4 -10z"/>
<path d="M670 3671 c0 -5 5 -13 10 -16 6 -3 10 -2 10 4 0 5 -4 13 -10 16 -5 3
-10 2 -10 -4z"/>
<path d="M730 3620 c0 -17 17 -47 23 -40 2 3 -2 16 -10 30 -7 14 -13 18 -13
10z"/>
<path d="M710 3520 c0 -5 5 -10 11 -10 5 0 7 5 4 10 -3 6 -8 10 -11 10 -2 0
-4 -4 -4 -10z"/>
<path d="M718 3485 c-8 -9 0 -153 10 -171 8 -15 10 -13 15 12 16 99 3 186 -25
159z"/>
<path d="M833 3425 c0 -8 6 -16 14 -19 11 -4 11 -1 3 14 -13 24 -17 25 -17 5z"/>
<path d="M1030 3403 c0 -13 5 -23 10 -23 13 0 13 11 0 30 -8 12 -10 11 -10 -7z"/>
<path d="M821 3360 c5 -23 7 -50 5 -59 -8 -24 10 -49 25 -34 7 7 8 17 3 25 -5
7 -10 28 -11 47 -1 19 -9 41 -17 49 -13 13 -13 10 -5 -28z"/>
<path d="M930 3340 c0 -5 5 -10 11 -10 5 0 7 5 4 10 -3 6 -8 10 -11 10 -2 0
-4 -4 -4 -10z"/>
<path d="M2045 3270 c-3 -5 1 -10 10 -10 9 0 13 5 10 10 -3 6 -8 10 -10 10 -2
0 -7 -4 -10 -10z"/>
<path d="M740 3250 c0 -5 5 -10 11 -10 5 0 7 5 4 10 -3 6 -8 10 -11 10 -2 0
-4 -4 -4 -10z"/>
<path d="M783 3247 c3 -10 57 -30 64 -24 1 2 -13 10 -33 19 -21 9 -34 12 -31
5z"/>
<path d="M870 3250 c0 -5 5 -10 10 -10 6 0 10 5 10 10 0 6 -4 10 -10 10 -5 0
-10 -4 -10 -10z"/>
<path d="M1885 3249 c-4 -6 -5 -12 -2 -15 2 -3 7 2 10 11 7 17 1 20 -8 4z"/>
<path d="M895 3231 c-9 -15 8 -35 24 -30 8 3 7 10 -2 23 -10 14 -16 16 -22 7z"/>
<path d="M1030 3225 c0 -8 5 -15 10 -15 6 0 10 7 10 15 0 8 -4 15 -10 15 -5 0
-10 -7 -10 -15z"/>
<path d="M1180 3211 c0 -6 4 -13 10 -16 6 -3 7 1 4 9 -7 18 -14 21 -14 7z"/>
<path d="M830 3164 c0 -3 5 -15 11 -26 10 -18 9 -20 -5 -15 -14 6 -14 4 1 -19
l17 -26 8 22 c6 16 4 30 -7 46 -15 23 -25 30 -25 18z"/>
<path d="M881 3143 c0 -4 4 -17 9 -28 8 -19 9 -19 9 2 1 12 -3 25 -9 28 -5 3
-10 3 -9 -2z"/>
<path d="M1030 3134 c0 -10 6 -13 18 -10 13 4 21 -2 29 -24 6 -17 16 -30 22
-30 11 0 -17 60 -34 72 -17 13 -35 9 -35 -8z"/>
<path d="M880 3063 c0 -16 7 -36 14 -46 12 -16 14 -16 20 -2 5 15 -18 75 -29
75 -3 0 -5 -12 -5 -27z"/>
<path d="M1390 3070 c8 -5 22 -10 30 -10 13 0 13 1 0 10 -8 5 -22 10 -30 10
-13 0 -13 -1 0 -10z"/>
<path d="M1480 3040 c6 -10 9 -24 8 -31 -2 -6 3 -14 11 -17 11 -3 12 0 6 14
-4 11 -8 24 -8 31 0 7 -6 14 -14 17 -10 4 -11 1 -3 -14z"/>
<path d="M1170 3039 c0 -8 59 -24 65 -17 2 2 -12 8 -31 14 -19 6 -34 8 -34 3z"/>
<path d="M827 3033 c-14 -4 -16 -8 -6 -19 17 -20 39 -17 39 6 0 20 -2 21 -33
13z"/>
<path d="M1098 3018 c9 -9 15 -9 24 0 9 9 7 12 -12 12 -19 0 -21 -3 -12 -12z"/>
<path d="M1166 2995 c4 -8 11 -15 16 -15 6 0 5 6 -2 15 -7 8 -14 15 -16 15 -2
0 -1 -7 2 -15z"/>
<path d="M847 2984 c-16 -16 -7 -44 14 -44 16 0 19 3 12 13 -6 6 -12 18 -14
25 -3 7 -8 10 -12 6z"/>
<path d="M1535 2980 c3 -5 8 -10 11 -10 2 0 4 5 4 10 0 6 -5 10 -11 10 -5 0
-7 -4 -4 -10z"/>
<path d="M1020 2962 c0 -5 7 -9 15 -9 8 0 12 4 9 9 -3 4 -9 8 -15 8 -5 0 -9
-4 -9 -8z"/>
<path d="M890 2951 c0 -5 5 -13 10 -16 6 -3 10 -2 10 4 0 5 -4 13 -10 16 -5 3
-10 2 -10 -4z"/>
<path d="M1535 2940 c4 -6 11 -8 16 -5 14 9 11 15 -7 15 -8 0 -12 -5 -9 -10z"/>
<path d="M950 2920 c-9 -6 -10 -10 -3 -10 6 0 15 5 18 10 8 12 4 12 -15 0z"/>
<path d="M898 2909 c6 -7 12 -16 12 -20 0 -4 -6 -9 -12 -12 -7 -2 -6 -3 4 -2
10 2 18 -6 21 -21 2 -13 0 -24 -5 -24 -5 0 -3 -10 3 -22 l12 -23 10 29 c7 20
6 30 -2 36 -7 4 -13 20 -14 36 -2 20 -9 30 -22 32 -16 3 -18 1 -7 -9z"/>
<path d="M1034 2904 c3 -9 6 -19 6 -22 0 -9 20 21 20 31 0 4 -7 7 -16 7 -11 0
-14 -5 -10 -16z"/>
<path d="M1750 2897 c0 -9 4 -18 9 -21 5 -4 8 1 7 9 -3 21 -16 31 -16 12z"/>
<path d="M1080 2893 c0 -16 23 -33 45 -32 11 0 14 3 7 6 -6 2 -9 10 -6 15 4 7
2 8 -5 4 -6 -4 -18 -2 -26 4 -8 7 -15 8 -15 3z"/>
<path d="M1023 2849 c0 -37 22 -45 23 -8 1 15 -4 30 -11 33 -7 2 -12 -7 -12
-25z"/>
<path d="M965 2790 c4 -6 11 -8 16 -5 14 9 11 15 -7 15 -8 0 -12 -5 -9 -10z"/>
<path d="M1040 2790 c0 -5 5 -10 11 -10 5 0 7 5 4 10 -3 6 -8 10 -11 10 -2 0
-4 -4 -4 -10z"/>
<path d="M1478 2783 c7 -3 16 -2 19 1 4 3 -2 6 -13 5 -11 0 -14 -3 -6 -6z"/>
<path d="M1030 2746 c0 -8 -6 -16 -12 -19 -7 -2 -1 -4 14 -4 16 0 25 4 22 9
-4 6 0 14 7 19 10 6 8 9 -8 9 -13 0 -23 -6 -23 -14z"/>
<path d="M63 2686 c-9 -10 -9 -17 0 -26 9 -10 9 -11 0 -6 -7 4 -13 2 -13 -3 0
-13 30 -14 48 -2 10 6 9 10 -7 14 -14 3 -19 10 -15 21 7 19 3 20 -13 2z"/>
<path d="M1650 2679 c0 -5 5 -7 10 -4 6 3 10 8 10 11 0 2 -4 4 -10 4 -5 0 -10
-5 -10 -11z"/>
<path d="M1160 2668 c0 -9 -6 -19 -12 -21 -10 -4 -10 -6 0 -6 14 -1 28 26 18
36 -3 4 -6 -1 -6 -9z"/>
<path d="M1570 2650 c20 -13 33 -13 25 0 -3 6 -14 10 -23 10 -15 0 -15 -2 -2
-10z"/>
<path d="M1905 2650 c-16 -7 -17 -9 -3 -9 9 -1 20 4 23 9 7 11 7 11 -20 0z"/>
<path d="M2905 2420 c-3 -5 1 -10 9 -10 9 0 16 5 16 10 0 6 -4 10 -9 10 -6 0
-13 -4 -16 -10z"/>
<path d="M2630 2036 c0 -2 9 -6 20 -9 11 -3 18 -1 14 4 -5 9 -34 13 -34 5z"/>
<path d="M2405 1910 c3 -5 10 -10 16 -10 5 0 9 5 9 10 0 6 -7 10 -16 10 -8 0
-12 -4 -9 -10z"/>
<path d="M4976 1458 c-79 -69 -51 -161 49 -161 53 0 81 20 95 71 7 25 5 44 -5
68 -26 62 -82 71 -139 22z"/>
<path d="M6364 1424 c3 -9 6 -22 6 -30 0 -8 8 -14 18 -13 10 0 12 3 5 6 -7 2
-13 16 -13 29 0 13 -5 24 -11 24 -6 0 -8 -7 -5 -16z"/>
<path d="M6375 1101 c-10 -8 -208 -74 -305 -101 -25 -7 -65 -18 -90 -25 -25
-7 -90 -25 -145 -40 -124 -34 -341 -110 -372 -130 -28 -18 -30 -56 -5 -78 19
-18 249 -87 287 -87 19 0 26 -9 40 -55 18 -56 43 -79 30 -27 -3 15 -9 42 -12
59 -6 36 -9 33 97 72 36 14 47 24 59 54 13 36 13 40 -9 69 -18 25 -20 32 -9
43 8 7 77 30 154 50 122 33 231 67 288 90 13 6 17 19 17 61 0 53 -6 63 -25 45z"/>
<path d="M5540 1091 c0 -5 5 -13 10 -16 6 -3 10 -2 10 4 0 5 -4 13 -10 16 -5
3 -10 2 -10 -4z"/>
<path d="M2565 1070 c3 -5 8 -10 11 -10 2 0 4 5 4 10 0 6 -5 10 -11 10 -5 0
-7 -4 -4 -10z"/>
<path d="M3380 935 c7 -9 15 -13 17 -11 7 7 -7 26 -19 26 -6 0 -6 -6 2 -15z"/>
<path d="M2995 780 c3 -5 8 -10 11 -10 2 0 4 5 4 10 0 6 -5 10 -11 10 -5 0 -7
-4 -4 -10z"/>
<path d="M3606 574 c-4 -10 -1 -14 6 -12 15 5 23 28 10 28 -5 0 -13 -7 -16
-16z"/>
<path d="M3330 486 c0 -2 7 -6 15 -10 8 -3 15 -1 15 4 0 6 -7 10 -15 10 -8 0
-15 -2 -15 -4z"/>
<path d="M2545 470 c3 -5 8 -10 11 -10 2 0 4 5 4 10 0 6 -5 10 -11 10 -5 0 -7
-4 -4 -10z"/>
<path d="M2457 439 c7 -7 15 -10 18 -7 3 3 -2 9 -12 12 -14 6 -15 5 -6 -5z"/>
<path d="M2530 440 c0 -5 5 -10 11 -10 5 0 7 5 4 10 -3 6 -8 10 -11 10 -2 0
-4 -4 -4 -10z"/>
<path d="M3130 415 c-11 -13 -8 -15 15 -15 23 0 26 2 15 15 -7 8 -14 15 -15
15 -1 0 -8 -7 -15 -15z"/>
<path d="M2397 399 c7 -7 15 -10 18 -7 3 3 -2 9 -12 12 -14 6 -15 5 -6 -5z"/>
<path d="M3730 350 c0 -5 5 -10 11 -10 5 0 7 5 4 10 -3 6 -8 10 -11 10 -2 0
-4 -4 -4 -10z"/>
<path d="M3798 333 c7 -3 16 -2 19 1 4 3 -2 6 -13 5 -11 0 -14 -3 -6 -6z"/>
<path d="M2590 326 c0 -2 7 -7 16 -10 8 -3 12 -2 9 4 -6 10 -25 14 -25 6z"/>
<path d="M3300 319 c0 -5 5 -7 10 -4 6 3 10 8 10 11 0 2 -4 4 -10 4 -5 0 -10
-5 -10 -11z"/>
<path d="M2785 310 c3 -5 8 -10 11 -10 2 0 4 5 4 10 0 6 -5 10 -11 10 -5 0 -7
-4 -4 -10z"/>
<path d="M3813 304 c0 -7 9 -14 19 -14 10 0 18 2 18 5 0 2 -8 9 -18 14 -14 8
-19 6 -19 -5z"/>
<path d="M3923 221 c-1 -14 3 -18 13 -14 11 4 12 9 3 19 -15 18 -14 18 -16 -5z"/>
<path d="M5995 170 c3 -5 8 -10 11 -10 2 0 4 5 4 10 0 6 -5 10 -11 10 -5 0 -7
-4 -4 -10z"/>
<path d="M5968 143 c9 -3 10 -9 3 -17 -7 -9 -2 -12 22 -14 31 -3 31 -2 12 13
-11 9 -14 13 -6 9 9 -5 12 -3 7 4 -4 7 -17 12 -29 11 -12 0 -16 -3 -9 -6z"/>
<path d="M3127 80 c3 -11 9 -20 15 -20 5 0 4 9 -2 20 -6 11 -12 20 -14 20 -2
0 -2 -9 1 -20z"/>
<path d="M6246 61 c-4 -6 -20 -8 -36 -4 -18 3 -30 1 -30 -5 0 -6 16 -9 35 -8
36 3 53 12 43 22 -3 3 -9 1 -12 -5z"/>
<path d="M3250 39 c0 -20 16 -43 23 -32 3 4 -1 17 -9 28 -10 13 -14 15 -14 4z"/>
<path d="M6280 41 c0 -7 -5 -9 -12 -5 -7 5 -8 3 -3 -5 5 -9 10 -10 18 -2 6 6
8 14 4 18 -4 3 -7 1 -7 -6z"/>
</g>
</svg>
